<?xml version="1.0" encoding="UTF-8" standalone="no"?>
<!DOCTYPE svg PUBLIC "-//W3C//DTD SVG 1.1//EN"
 "http://www.w3.org/Graphics/SVG/1.1/DTD/svg11.dtd">
<!-- Generated by graphviz version 2.40.1 (20161225.0304)
 -->
<!-- Title: G Pages: 1 -->
<svg width="875pt" height="332pt"
 viewBox="0.00 0.00 874.77 332.00" xmlns="http://www.w3.org/2000/svg" xmlns:xlink="http://www.w3.org/1999/xlink">
<g id="graph0" class="graph" transform="scale(1 1) rotate(0) translate(4 328)">
<title>G</title>
<polygon fill="#ffffff" stroke="transparent" points="-4,4 -4,-328 870.7711,-328 870.7711,4 -4,4"/>
<!--  CONTROLIN_1 -->
<g id="node1" class="node">
<title> CONTROLIN_1</title>
<ellipse fill="#6495ed" stroke="#6495ed" cx="469.3856" cy="-306" rx="53.2714" ry="18"/>
<text text-anchor="middle" x="469.3856" y="-303" font-family="Helvetica,sans-Serif" font-size="10.00" fill="#ffffff"> CONTROLIN_1</text>
</g>
<!-- (count_send_data != DATA_CONFIG_REG[13:2]) -->
<g id="node2" class="node">
<title>(count_send_data != DATA_CONFIG_REG[13:2])</title>
<ellipse fill="#6495ed" stroke="#6495ed" cx="469.3856" cy="-234" rx="142.4018" ry="18"/>
<text text-anchor="middle" x="469.3856" y="-231" font-family="Helvetica,sans-Serif" font-size="10.00" fill="#ffffff">(count_send_data != DATA_CONFIG_REG[13:2])</text>
</g>
<!--  CONTROLIN_1&#45;&gt;(count_send_data != DATA_CONFIG_REG[13:2]) -->
<g id="edge1" class="edge">
<title> CONTROLIN_1&#45;&gt;(count_send_data != DATA_CONFIG_REG[13:2])</title>
<path fill="none" stroke="#b03060" d="M463.4332,-287.8314C462.6003,-279.2848 462.4197,-268.9443 462.8914,-259.6198"/>
<polygon fill="#b03060" stroke="#b03060" points="463.4096,-252.4133 466.0494,-259.6212 463.1585,-255.9043 462.9075,-259.3952 462.9075,-259.3952 462.9075,-259.3952 463.1585,-255.9043 459.7656,-259.1693 463.4096,-252.4133 463.4096,-252.4133"/>
</g>
<!-- !(count_send_data != DATA_CONFIG_REG[13:2]) -->
<g id="node3" class="node">
<title>!(count_send_data != DATA_CONFIG_REG[13:2])</title>
<ellipse fill="#6495ed" stroke="#6495ed" cx="433.3856" cy="-90" rx="144.2442" ry="18"/>
<text text-anchor="middle" x="433.3856" y="-87" font-family="Helvetica,sans-Serif" font-size="10.00" fill="#ffffff">!(count_send_data != DATA_CONFIG_REG[13:2])</text>
</g>
<!--  CONTROLIN_1&#45;&gt;!(count_send_data != DATA_CONFIG_REG[13:2]) -->
<g id="edge3" class="edge">
<title> CONTROLIN_1&#45;&gt;!(count_send_data != DATA_CONFIG_REG[13:2])</title>
<path fill="none" stroke="#b03060" d="M424.7515,-296.0351C384.9132,-286.1296 330.9715,-269.8675 318.3856,-252 282.9336,-201.6711 352.8188,-142.773 398.3898,-111.72"/>
<polygon fill="#b03060" stroke="#b03060" points="404.3692,-107.709 400.3107,-114.2246 401.4625,-109.6588 398.5559,-111.6086 398.5559,-111.6086 398.5559,-111.6086 401.4625,-109.6588 396.8011,-108.9927 404.3692,-107.709 404.3692,-107.709"/>
</g>
<!-- (count_send_data != DATA_CONFIG_REG[13:2])&#45;&gt; CONTROLIN_1 -->
<g id="edge2" class="edge">
<title>(count_send_data != DATA_CONFIG_REG[13:2])&#45;&gt; CONTROLIN_1</title>
<path fill="none" stroke="#b03060" d="M475.3616,-252.4133C476.182,-260.9938 476.3502,-271.3414 475.8661,-280.6463"/>
<polygon fill="#b03060" stroke="#b03060" points="475.338,-287.8314 472.7096,-280.6192 475.5946,-284.3408 475.8512,-280.8502 475.8512,-280.8502 475.8512,-280.8502 475.5946,-284.3408 478.9927,-281.0811 475.338,-287.8314 475.338,-287.8314"/>
</g>
<!--  CONTROLIN_2 -->
<g id="node4" class="node">
<title> CONTROLIN_2</title>
<ellipse fill="#6495ed" stroke="#6495ed" cx="563.3856" cy="-18" rx="53.2714" ry="18"/>
<text text-anchor="middle" x="563.3856" y="-15" font-family="Helvetica,sans-Serif" font-size="10.00" fill="#ffffff"> CONTROLIN_2</text>
</g>
<!-- (count_send_data != DATA_CONFIG_REG[13:2])&#45;&gt; CONTROLIN_2 -->
<g id="edge6" class="edge">
<title>(count_send_data != DATA_CONFIG_REG[13:2])&#45;&gt; CONTROLIN_2</title>
<path fill="none" stroke="#b03060" d="M488.4018,-216.1178C514.3954,-194.3564 559.0546,-154.6804 577.3856,-108 585.764,-86.6641 577.749,-61.277 570.5018,-42.9141"/>
<polygon fill="#b03060" stroke="#b03060" points="567.6964,-35.9986 573.2468,-41.3011 569.0121,-39.2419 570.3279,-42.4852 570.3279,-42.4852 570.3279,-42.4852 569.0121,-39.2419 567.4089,-43.6694 567.6964,-35.9986 567.6964,-35.9986"/>
</g>
<!--  CONTROLIN_3 -->
<g id="node5" class="node">
<title> CONTROLIN_3</title>
<ellipse fill="#6495ed" stroke="#6495ed" cx="688.3856" cy="-18" rx="53.2714" ry="18"/>
<text text-anchor="middle" x="688.3856" y="-15" font-family="Helvetica,sans-Serif" font-size="10.00" fill="#ffffff"> CONTROLIN_3</text>
</g>
<!-- (count_send_data != DATA_CONFIG_REG[13:2])&#45;&gt; CONTROLIN_3 -->
<g id="edge10" class="edge">
<title>(count_send_data != DATA_CONFIG_REG[13:2])&#45;&gt; CONTROLIN_3</title>
<path fill="none" stroke="#b03060" d="M506.4918,-216.5126C525.4093,-207.5127 547.9148,-195.2091 565.3856,-180 612.1481,-139.2913 649.5837,-75.5789 670.7813,-41.4503"/>
<polygon fill="#b03060" stroke="#b03060" points="674.549,-35.4342 673.5032,-43.0388 672.6913,-38.4005 670.8335,-41.3668 670.8335,-41.3668 670.8335,-41.3668 672.6913,-38.4005 668.1639,-39.6949 674.549,-35.4342 674.549,-35.4342"/>
</g>
<!--  CONTROLIN_4 -->
<g id="node6" class="node">
<title> CONTROLIN_4</title>
<ellipse fill="#6495ed" stroke="#6495ed" cx="813.3856" cy="-18" rx="53.2714" ry="18"/>
<text text-anchor="middle" x="813.3856" y="-15" font-family="Helvetica,sans-Serif" font-size="10.00" fill="#ffffff"> CONTROLIN_4</text>
</g>
<!-- (count_send_data != DATA_CONFIG_REG[13:2])&#45;&gt; CONTROLIN_4 -->
<g id="edge14" class="edge">
<title>(count_send_data != DATA_CONFIG_REG[13:2])&#45;&gt; CONTROLIN_4</title>
<path fill="none" stroke="#b03060" d="M519.1998,-217.0168C545.4177,-207.9134 577.5042,-195.3837 604.3856,-180 675.9114,-139.067 748.1822,-73.0318 786.3666,-39.308"/>
<polygon fill="#b03060" stroke="#b03060" points="791.7489,-34.5737 788.5734,-41.5622 789.1209,-36.8853 786.4929,-39.197 786.4929,-39.197 786.4929,-39.197 789.1209,-36.8853 784.4124,-36.8318 791.7489,-34.5737 791.7489,-34.5737"/>
</g>
<!--  CONTROLIN_5 -->
<g id="node7" class="node">
<title> CONTROLIN_5</title>
<ellipse fill="#6495ed" stroke="#6495ed" cx="53.3856" cy="-18" rx="53.2714" ry="18"/>
<text text-anchor="middle" x="53.3856" y="-15" font-family="Helvetica,sans-Serif" font-size="10.00" fill="#ffffff"> CONTROLIN_5</text>
</g>
<!-- (count_send_data != DATA_CONFIG_REG[13:2])&#45;&gt; CONTROLIN_5 -->
<g id="edge18" class="edge">
<title>(count_send_data != DATA_CONFIG_REG[13:2])&#45;&gt; CONTROLIN_5</title>
<path fill="none" stroke="#b03060" d="M376.9542,-220.2694C337.1526,-211.8995 291.0382,-199.0474 252.3856,-180 177.3642,-143.0307 103.4699,-76.3031 70.5872,-41.1328"/>
<polygon fill="#b03060" stroke="#b03060" points="65.6679,-35.7685 72.7207,-38.7987 68.0335,-38.3481 70.3991,-40.9277 70.3991,-40.9277 70.3991,-40.9277 68.0335,-38.3481 68.0775,-43.0567 65.6679,-35.7685 65.6679,-35.7685"/>
</g>
<!--  CONTROLIN_6 -->
<g id="node8" class="node">
<title> CONTROLIN_6</title>
<ellipse fill="#6495ed" stroke="#6495ed" cx="178.3856" cy="-18" rx="53.2714" ry="18"/>
<text text-anchor="middle" x="178.3856" y="-15" font-family="Helvetica,sans-Serif" font-size="10.00" fill="#ffffff"> CONTROLIN_6</text>
</g>
<!-- (count_send_data != DATA_CONFIG_REG[13:2])&#45;&gt; CONTROLIN_6 -->
<g id="edge22" class="edge">
<title>(count_send_data != DATA_CONFIG_REG[13:2])&#45;&gt; CONTROLIN_6</title>
<path fill="none" stroke="#b03060" d="M385.6548,-219.3876C355.2268,-211.1495 321.8872,-198.6419 295.3856,-180 243.0653,-143.1967 202.1604,-78.3396 185.4957,-42.8769"/>
<polygon fill="#b03060" stroke="#b03060" points="182.4897,-36.1933 188.2338,-41.2853 183.9254,-39.3853 185.361,-42.5773 185.361,-42.5773 185.361,-42.5773 183.9254,-39.3853 182.4882,-43.8694 182.4897,-36.1933 182.4897,-36.1933"/>
</g>
<!--  CONTROLIN_7 -->
<g id="node9" class="node">
<title> CONTROLIN_7</title>
<ellipse fill="#6495ed" stroke="#6495ed" cx="303.3856" cy="-18" rx="53.2714" ry="18"/>
<text text-anchor="middle" x="303.3856" y="-15" font-family="Helvetica,sans-Serif" font-size="10.00" fill="#ffffff"> CONTROLIN_7</text>
</g>
<!-- (count_send_data != DATA_CONFIG_REG[13:2])&#45;&gt; CONTROLIN_7 -->
<g id="edge26" class="edge">
<title>(count_send_data != DATA_CONFIG_REG[13:2])&#45;&gt; CONTROLIN_7</title>
<path fill="none" stroke="#b03060" d="M414.4441,-217.2504C366.715,-198.4999 300.9724,-163.2835 271.3856,-108 260.1047,-86.9216 269.6012,-60.0759 281.3421,-41.2103"/>
<polygon fill="#b03060" stroke="#b03060" points="285.3831,-35.1382 284.1272,-42.7109 283.444,-38.0519 281.5049,-40.9657 281.5049,-40.9657 281.5049,-40.9657 283.444,-38.0519 278.8825,-39.2205 285.3831,-35.1382 285.3831,-35.1382"/>
</g>
<!--  CONTROLIN_8 -->
<g id="node10" class="node">
<title> CONTROLIN_8</title>
<ellipse fill="#6495ed" stroke="#6495ed" cx="451.3856" cy="-162" rx="53.2714" ry="18"/>
<text text-anchor="middle" x="451.3856" y="-159" font-family="Helvetica,sans-Serif" font-size="10.00" fill="#ffffff"> CONTROLIN_8</text>
</g>
<!-- (count_send_data != DATA_CONFIG_REG[13:2])&#45;&gt; CONTROLIN_8 -->
<g id="edge30" class="edge">
<title>(count_send_data != DATA_CONFIG_REG[13:2])&#45;&gt; CONTROLIN_8</title>
<path fill="none" stroke="#b03060" d="M458.891,-215.8314C455.8921,-207.2001 453.101,-196.7394 451.2414,-187.3432"/>
<polygon fill="#b03060" stroke="#b03060" points="450.0129,-180.4133 454.3365,-186.7559 450.6239,-183.8595 451.2349,-187.3058 451.2349,-187.3058 451.2349,-187.3058 450.6239,-183.8595 448.1332,-187.8557 450.0129,-180.4133 450.0129,-180.4133"/>
</g>
<!-- !(count_send_data != DATA_CONFIG_REG[13:2])&#45;&gt; CONTROLIN_2 -->
<g id="edge4" class="edge">
<title>!(count_send_data != DATA_CONFIG_REG[13:2])&#45;&gt; CONTROLIN_2</title>
<path fill="none" stroke="#b03060" d="M459.6047,-72.2022C478.3964,-61.1824 503.8615,-47.0747 524.9217,-36.0147"/>
<polygon fill="#b03060" stroke="#b03060" points="531.304,-32.6869 526.5534,-38.7165 528.2005,-34.3051 525.097,-35.9233 525.097,-35.9233 525.097,-35.9233 528.2005,-34.3051 523.6406,-33.1302 531.304,-32.6869 531.304,-32.6869"/>
</g>
<!-- !(count_send_data != DATA_CONFIG_REG[13:2])&#45;&gt; CONTROLIN_3 -->
<g id="edge8" class="edge">
<title>!(count_send_data != DATA_CONFIG_REG[13:2])&#45;&gt; CONTROLIN_3</title>
<path fill="none" stroke="#b03060" d="M485.7542,-73.1598C522.3622,-62.5391 572.2447,-48.5131 616.3856,-36 623.034,-34.1153 630.0748,-32.1114 637.0676,-30.1511"/>
<polygon fill="#b03060" stroke="#b03060" points="644.028,-28.2114 638.1307,-33.125 640.6565,-29.151 637.285,-30.0906 637.285,-30.0906 637.285,-30.0906 640.6565,-29.151 636.4393,-27.0562 644.028,-28.2114 644.028,-28.2114"/>
</g>
<!-- !(count_send_data != DATA_CONFIG_REG[13:2])&#45;&gt; CONTROLIN_4 -->
<g id="edge12" class="edge">
<title>!(count_send_data != DATA_CONFIG_REG[13:2])&#45;&gt; CONTROLIN_4</title>
<path fill="none" stroke="#b03060" d="M524.3754,-76.0334C585.9368,-66.4429 668.8459,-52.4891 741.3856,-36 748.2905,-34.4304 755.5624,-32.5599 762.7441,-30.6275"/>
<polygon fill="#b03060" stroke="#b03060" points="769.8787,-28.6834 763.9531,-33.563 766.5018,-29.6036 763.1249,-30.5238 763.1249,-30.5238 763.1249,-30.5238 766.5018,-29.6036 762.2967,-27.4846 769.8787,-28.6834 769.8787,-28.6834"/>
</g>
<!-- !(count_send_data != DATA_CONFIG_REG[13:2])&#45;&gt; CONTROLIN_5 -->
<g id="edge16" class="edge">
<title>!(count_send_data != DATA_CONFIG_REG[13:2])&#45;&gt; CONTROLIN_5</title>
<path fill="none" stroke="#b03060" d="M333.3628,-76.99C268.446,-67.3825 182.375,-53.046 107.3856,-36 103.8031,-35.1857 100.1219,-34.2903 96.4419,-33.3474"/>
<polygon fill="#b03060" stroke="#b03060" points="89.3927,-31.484 96.9653,-30.2276 92.7765,-32.3785 96.1603,-33.273 96.1603,-33.273 96.1603,-33.273 92.7765,-32.3785 95.3553,-36.3184 89.3927,-31.484 89.3927,-31.484"/>
</g>
<!-- !(count_send_data != DATA_CONFIG_REG[13:2])&#45;&gt; CONTROLIN_6 -->
<g id="edge20" class="edge">
<title>!(count_send_data != DATA_CONFIG_REG[13:2])&#45;&gt; CONTROLIN_6</title>
<path fill="none" stroke="#b03060" d="M368.152,-73.8759C328.6707,-63.175 277.5259,-48.7964 232.3856,-36 228.9844,-35.0358 225.4805,-34.0405 221.9652,-33.0357"/>
<polygon fill="#b03060" stroke="#b03060" points="215.2147,-31.0977 222.8122,-30.0017 218.5788,-32.0635 221.9429,-33.0294 221.9429,-33.0294 221.9429,-33.0294 218.5788,-32.0635 221.0736,-36.0571 215.2147,-31.0977 215.2147,-31.0977"/>
</g>
<!-- !(count_send_data != DATA_CONFIG_REG[13:2])&#45;&gt; CONTROLIN_7 -->
<g id="edge24" class="edge">
<title>!(count_send_data != DATA_CONFIG_REG[13:2])&#45;&gt; CONTROLIN_7</title>
<path fill="none" stroke="#b03060" d="M396.038,-72.5708C376.0544,-62.1012 351.8642,-48.7459 333.1509,-37.868"/>
<polygon fill="#b03060" stroke="#b03060" points="327.0286,-34.2817 334.6608,-35.1018 330.0486,-36.0508 333.0686,-37.8198 333.0686,-37.8198 333.0686,-37.8198 330.0486,-36.0508 331.4764,-40.5379 327.0286,-34.2817 327.0286,-34.2817"/>
</g>
<!-- !(count_send_data != DATA_CONFIG_REG[13:2])&#45;&gt; CONTROLIN_8 -->
<g id="edge28" class="edge">
<title>!(count_send_data != DATA_CONFIG_REG[13:2])&#45;&gt; CONTROLIN_8</title>
<path fill="none" stroke="#b03060" d="M443.9649,-108.4133C446.9599,-117.0787 449.7401,-127.5464 451.5821,-136.9223"/>
<polygon fill="#b03060" stroke="#b03060" points="452.7958,-143.8314 448.4821,-137.482 452.1902,-140.3841 451.5846,-136.9369 451.5846,-136.9369 451.5846,-136.9369 452.1902,-140.3841 454.6871,-136.3919 452.7958,-143.8314 452.7958,-143.8314"/>
</g>
<!--  RESPONSE_CIN -->
<g id="node11" class="node">
<title> RESPONSE_CIN</title>
<ellipse fill="#6495ed" stroke="#6495ed" cx="433.3856" cy="-18" rx="58.3004" ry="18"/>
<text text-anchor="middle" x="433.3856" y="-15" font-family="Helvetica,sans-Serif" font-size="10.00" fill="#ffffff"> RESPONSE_CIN</text>
</g>
<!-- !(count_send_data != DATA_CONFIG_REG[13:2])&#45;&gt; RESPONSE_CIN -->
<g id="edge32" class="edge">
<title>!(count_send_data != DATA_CONFIG_REG[13:2])&#45;&gt; RESPONSE_CIN</title>
<path fill="none" stroke="#b03060" d="M433.3856,-71.8314C433.3856,-63.2848 433.3856,-52.9443 433.3856,-43.6198"/>
<polygon fill="#b03060" stroke="#b03060" points="433.3856,-36.4133 436.5357,-43.4132 433.3856,-39.9133 433.3857,-43.4133 433.3857,-43.4133 433.3857,-43.4133 433.3856,-39.9133 430.2357,-43.4133 433.3856,-36.4133 433.3856,-36.4133"/>
</g>
<!--  CONTROLIN_2&#45;&gt;(count_send_data != DATA_CONFIG_REG[13:2]) -->
<g id="edge5" class="edge">
<title> CONTROLIN_2&#45;&gt;(count_send_data != DATA_CONFIG_REG[13:2])</title>
<path fill="none" stroke="#b03060" d="M580.7673,-35.3155C593.0423,-53.7353 604.994,-83.5317 595.3856,-108 578.1492,-151.8931 537.6347,-189.5933 507.0188,-212.0304"/>
<polygon fill="#b03060" stroke="#b03060" points="501.0374,-216.3116 504.8962,-209.6759 503.8835,-214.2745 506.7296,-212.2373 506.7296,-212.2373 506.7296,-212.2373 503.8835,-214.2745 508.563,-214.7988 501.0374,-216.3116 501.0374,-216.3116"/>
</g>
<!--  CONTROLIN_2&#45;&gt;!(count_send_data != DATA_CONFIG_REG[13:2]) -->
<g id="edge7" class="edge">
<title> CONTROLIN_2&#45;&gt;!(count_send_data != DATA_CONFIG_REG[13:2])</title>
<path fill="none" stroke="#b03060" d="M539.7426,-34.2817C522.2404,-44.62 498.0519,-58.096 477.1153,-69.2052"/>
<polygon fill="#b03060" stroke="#b03060" points="470.7332,-72.5708 475.4556,-66.5192 473.8291,-70.9382 476.925,-69.3055 476.925,-69.3055 476.925,-69.3055 473.8291,-70.9382 478.3944,-72.0918 470.7332,-72.5708 470.7332,-72.5708"/>
</g>
<!--  CONTROLIN_3&#45;&gt;(count_send_data != DATA_CONFIG_REG[13:2]) -->
<g id="edge9" class="edge">
<title> CONTROLIN_3&#45;&gt;(count_send_data != DATA_CONFIG_REG[13:2])</title>
<path fill="none" stroke="#b03060" d="M684.7086,-36.1959C671.5936,-68.6413 632.6695,-137.0962 583.3856,-180 567.2724,-194.0272 546.8767,-205.5829 527.7485,-214.3548"/>
<polygon fill="#b03060" stroke="#b03060" points="521.3182,-217.2224 526.4283,-211.4944 524.5147,-215.7968 527.7113,-214.3713 527.7113,-214.3713 527.7113,-214.3713 524.5147,-215.7968 528.9943,-217.2482 521.3182,-217.2224 521.3182,-217.2224"/>
</g>
<!--  CONTROLIN_3&#45;&gt;!(count_send_data != DATA_CONFIG_REG[13:2]) -->
<g id="edge11" class="edge">
<title> CONTROLIN_3&#45;&gt;!(count_send_data != DATA_CONFIG_REG[13:2])</title>
<path fill="none" stroke="#b03060" d="M651.5565,-31.0977C645.8249,-32.7516 639.967,-34.4178 634.3856,-36 591.8902,-48.0466 544.0733,-61.4954 505.6757,-71.9581"/>
<polygon fill="#b03060" stroke="#b03060" points="498.6191,-73.8759 504.5479,-69.0002 501.9966,-72.9579 505.3741,-72.04 505.3741,-72.04 505.3741,-72.04 501.9966,-72.9579 506.2002,-75.0797 498.6191,-73.8759 498.6191,-73.8759"/>
</g>
<!--  CONTROLIN_4&#45;&gt;(count_send_data != DATA_CONFIG_REG[13:2]) -->
<g id="edge13" class="edge">
<title> CONTROLIN_4&#45;&gt;(count_send_data != DATA_CONFIG_REG[13:2])</title>
<path fill="none" stroke="#b03060" d="M801.0713,-35.5752C771.7244,-67.9319 696.6535,-137.4978 622.3856,-180 596.8566,-194.6098 566.6331,-206.6454 539.7656,-215.6169"/>
<polygon fill="#b03060" stroke="#b03060" points="533.0121,-217.8314 538.6821,-212.6571 536.3379,-216.7408 539.6637,-215.6502 539.6637,-215.6502 539.6637,-215.6502 536.3379,-216.7408 540.6452,-218.6434 533.0121,-217.8314 533.0121,-217.8314"/>
</g>
<!--  CONTROLIN_4&#45;&gt;!(count_send_data != DATA_CONFIG_REG[13:2]) -->
<g id="edge15" class="edge">
<title> CONTROLIN_4&#45;&gt;!(count_send_data != DATA_CONFIG_REG[13:2])</title>
<path fill="none" stroke="#b03060" d="M777.3784,-31.484C771.4094,-33.1091 765.2644,-34.6637 759.3856,-36 687.0325,-52.4467 604.3633,-66.3711 540.332,-75.9593"/>
<polygon fill="#b03060" stroke="#b03060" points="533.4083,-76.99 539.8681,-72.8435 536.8702,-76.4746 540.332,-75.9592 540.332,-75.9592 540.332,-75.9592 536.8702,-76.4746 540.7959,-79.0749 533.4083,-76.99 533.4083,-76.99"/>
</g>
<!--  CONTROLIN_5&#45;&gt;(count_send_data != DATA_CONFIG_REG[13:2]) -->
<g id="edge17" class="edge">
<title> CONTROLIN_5&#45;&gt;(count_send_data != DATA_CONFIG_REG[13:2])</title>
<path fill="none" stroke="#b03060" d="M74.8573,-34.7429C111.9505,-67.5792 190.5296,-140.6482 270.3856,-180 305.0538,-197.0839 345.7245,-209.184 381.2665,-217.5363"/>
<polygon fill="#b03060" stroke="#b03060" points="388.3032,-219.1571 380.7747,-220.6554 384.8925,-218.3714 381.4818,-217.5858 381.4818,-217.5858 381.4818,-217.5858 384.8925,-218.3714 382.1889,-214.5162 388.3032,-219.1571 388.3032,-219.1571"/>
</g>
<!--  CONTROLIN_5&#45;&gt;!(count_send_data != DATA_CONFIG_REG[13:2]) -->
<g id="edge19" class="edge">
<title> CONTROLIN_5&#45;&gt;!(count_send_data != DATA_CONFIG_REG[13:2])</title>
<path fill="none" stroke="#b03060" d="M96.8925,-28.6834C106.3199,-31.2794 116.179,-33.9072 125.3856,-36 195.2333,-51.8772 274.6952,-65.4038 335.4557,-74.9478"/>
<polygon fill="#b03060" stroke="#b03060" points="342.3958,-76.0334 334.993,-78.0636 338.9378,-75.4924 335.4799,-74.9515 335.4799,-74.9515 335.4799,-74.9515 338.9378,-75.4924 335.9667,-71.8393 342.3958,-76.0334 342.3958,-76.0334"/>
</g>
<!--  CONTROLIN_6&#45;&gt;(count_send_data != DATA_CONFIG_REG[13:2]) -->
<g id="edge21" class="edge">
<title> CONTROLIN_6&#45;&gt;(count_send_data != DATA_CONFIG_REG[13:2])</title>
<path fill="none" stroke="#b03060" d="M192.4467,-35.416C214.0871,-68.4503 257.1402,-140.4357 313.3856,-180 336.6949,-196.3963 365.294,-208.0472 391.6423,-216.2214"/>
<polygon fill="#b03060" stroke="#b03060" points="398.6466,-218.3304 391.0356,-219.3284 395.2952,-217.3213 391.9439,-216.3122 391.9439,-216.3122 391.9439,-216.3122 395.2952,-217.3213 392.8521,-213.2959 398.6466,-218.3304 398.6466,-218.3304"/>
</g>
<!--  CONTROLIN_6&#45;&gt;!(count_send_data != DATA_CONFIG_REG[13:2]) -->
<g id="edge23" class="edge">
<title> CONTROLIN_6&#45;&gt;!(count_send_data != DATA_CONFIG_REG[13:2])</title>
<path fill="none" stroke="#b03060" d="M222.7431,-28.2114C231.9589,-30.7623 241.521,-33.4871 250.3856,-36 291.7677,-47.731 338.1961,-60.7918 374.002,-71.1297"/>
<polygon fill="#b03060" stroke="#b03060" points="381.017,-73.1598 373.4172,-74.2396 377.6549,-72.1868 374.2929,-71.2138 374.2929,-71.2138 374.2929,-71.2138 377.6549,-72.1868 375.1686,-68.188 381.017,-73.1598 381.017,-73.1598"/>
</g>
<!--  CONTROLIN_7&#45;&gt;(count_send_data != DATA_CONFIG_REG[13:2]) -->
<g id="edge25" class="edge">
<title> CONTROLIN_7&#45;&gt;(count_send_data != DATA_CONFIG_REG[13:2])</title>
<path fill="none" stroke="#b03060" d="M298.0928,-36.175C289.5428,-55.0433 277.0578,-84.9654 289.3856,-108 317.2622,-160.088 377.2357,-194.3618 420.3904,-213.8332"/>
<polygon fill="#b03060" stroke="#b03060" points="426.8968,-216.7153 419.2208,-216.7603 423.6967,-215.2978 420.4966,-213.8802 420.4966,-213.8802 420.4966,-213.8802 423.6967,-215.2978 421.7723,-211.0001 426.8968,-216.7153 426.8968,-216.7153"/>
</g>
<!--  CONTROLIN_7&#45;&gt;!(count_send_data != DATA_CONFIG_REG[13:2]) -->
<g id="edge27" class="edge">
<title> CONTROLIN_7&#45;&gt;!(count_send_data != DATA_CONFIG_REG[13:2])</title>
<path fill="none" stroke="#b03060" d="M335.4672,-32.6869C355.4111,-43.006 380.8582,-56.9759 400.8729,-68.5399"/>
<polygon fill="#b03060" stroke="#b03060" points="407.1665,-72.2022 399.5319,-71.4041 404.1414,-70.4419 401.1163,-68.6815 401.1163,-68.6815 401.1163,-68.6815 404.1414,-70.4419 402.7006,-65.9589 407.1665,-72.2022 407.1665,-72.2022"/>
</g>
<!--  CONTROLIN_8&#45;&gt;(count_send_data != DATA_CONFIG_REG[13:2]) -->
<g id="edge29" class="edge">
<title> CONTROLIN_8&#45;&gt;(count_send_data != DATA_CONFIG_REG[13:2])</title>
<path fill="none" stroke="#b03060" d="M461.7912,-179.9134C464.8404,-188.6404 467.6826,-199.2832 469.5604,-208.812"/>
<polygon fill="#b03060" stroke="#b03060" points="470.7958,-215.8314 466.48,-209.4834 470.1891,-212.3843 469.5824,-208.9373 469.5824,-208.9373 469.5824,-208.9373 470.1891,-212.3843 472.6847,-208.3913 470.7958,-215.8314 470.7958,-215.8314"/>
</g>
<!--  CONTROLIN_8&#45;&gt;!(count_send_data != DATA_CONFIG_REG[13:2]) -->
<g id="edge31" class="edge">
<title> CONTROLIN_8&#45;&gt;!(count_send_data != DATA_CONFIG_REG[13:2])</title>
<path fill="none" stroke="#b03060" d="M441.0204,-144.2022C437.9517,-135.4416 435.0889,-124.7293 433.2029,-115.1482"/>
<polygon fill="#b03060" stroke="#b03060" points="431.9638,-108.0931 436.2773,-114.4427 432.5693,-111.5404 433.1748,-114.9876 433.1748,-114.9876 433.1748,-114.9876 432.5693,-111.5404 430.0723,-115.5325 431.9638,-108.0931 431.9638,-108.0931"/>
</g>
</g>
</svg>
