<?xml version="1.0" encoding="UTF-8" standalone="no"?>
<!DOCTYPE svg PUBLIC "-//W3C//DTD SVG 1.1//EN"
 "http://www.w3.org/Graphics/SVG/1.1/DTD/svg11.dtd">
<!-- Generated by graphviz version 2.40.1 (20161225.0304)
 -->
<!-- Title: G Pages: 1 -->
<svg width="713pt" height="332pt"
 viewBox="0.00 0.00 712.71 332.00" xmlns="http://www.w3.org/2000/svg" xmlns:xlink="http://www.w3.org/1999/xlink">
<g id="graph0" class="graph" transform="scale(1 1) rotate(0) translate(4 328)">
<title>G</title>
<polygon fill="#ffffff" stroke="transparent" points="-4,4 -4,-328 708.7126,-328 708.7126,4 -4,4"/>
<!--  DATA0_1 -->
<g id="node1" class="node">
<title> DATA0_1</title>
<ellipse fill="#6495ed" stroke="#6495ed" cx="388.3563" cy="-306" rx="37.2132" ry="18"/>
<text text-anchor="middle" x="388.3563" y="-303" font-family="Helvetica,sans-Serif" font-size="10.00" fill="#ffffff"> DATA0_1</text>
</g>
<!-- (count_send_data != DATA_CONFIG_REG[13:2]) -->
<g id="node2" class="node">
<title>(count_send_data != DATA_CONFIG_REG[13:2])</title>
<ellipse fill="#6495ed" stroke="#6495ed" cx="388.3563" cy="-234" rx="142.4018" ry="18"/>
<text text-anchor="middle" x="388.3563" y="-231" font-family="Helvetica,sans-Serif" font-size="10.00" fill="#ffffff">(count_send_data != DATA_CONFIG_REG[13:2])</text>
</g>
<!--  DATA0_1&#45;&gt;(count_send_data != DATA_CONFIG_REG[13:2]) -->
<g id="edge1" class="edge">
<title> DATA0_1&#45;&gt;(count_send_data != DATA_CONFIG_REG[13:2])</title>
<path fill="none" stroke="#b03060" d="M382.4406,-288.2022C381.562,-279.4416 381.3774,-268.7293 381.8866,-259.1482"/>
<polygon fill="#b03060" stroke="#b03060" points="382.4113,-252.0931 385.0334,-259.3075 382.1517,-255.5835 381.892,-259.0738 381.892,-259.0738 381.892,-259.0738 382.1517,-255.5835 378.7507,-258.8402 382.4113,-252.0931 382.4113,-252.0931"/>
</g>
<!-- !(count_send_data != DATA_CONFIG_REG[13:2]) -->
<g id="node3" class="node">
<title>!(count_send_data != DATA_CONFIG_REG[13:2])</title>
<ellipse fill="#6495ed" stroke="#6495ed" cx="352.3563" cy="-90" rx="144.2442" ry="18"/>
<text text-anchor="middle" x="352.3563" y="-87" font-family="Helvetica,sans-Serif" font-size="10.00" fill="#ffffff">!(count_send_data != DATA_CONFIG_REG[13:2])</text>
</g>
<!--  DATA0_1&#45;&gt;!(count_send_data != DATA_CONFIG_REG[13:2]) -->
<g id="edge3" class="edge">
<title> DATA0_1&#45;&gt;!(count_send_data != DATA_CONFIG_REG[13:2])</title>
<path fill="none" stroke="#b03060" d="M354.0039,-298.53C313.833,-289.017 251.0646,-271.4608 237.3563,-252 201.9043,-201.6711 271.7895,-142.773 317.3605,-111.72"/>
<polygon fill="#b03060" stroke="#b03060" points="323.3399,-107.709 319.2815,-114.2246 320.4333,-109.6588 317.5266,-111.6086 317.5266,-111.6086 317.5266,-111.6086 320.4333,-109.6588 315.7718,-108.9927 323.3399,-107.709 323.3399,-107.709"/>
</g>
<!-- (count_send_data != DATA_CONFIG_REG[13:2])&#45;&gt; DATA0_1 -->
<g id="edge2" class="edge">
<title>(count_send_data != DATA_CONFIG_REG[13:2])&#45;&gt; DATA0_1</title>
<path fill="none" stroke="#b03060" d="M394.3013,-252.0931C395.1643,-260.8972 395.3334,-271.6182 394.8086,-281.1736"/>
<polygon fill="#b03060" stroke="#b03060" points="394.272,-288.2022 391.6641,-280.9827 394.5385,-284.7124 394.805,-281.2226 394.805,-281.2226 394.805,-281.2226 394.5385,-284.7124 397.9458,-281.4624 394.272,-288.2022 394.272,-288.2022"/>
</g>
<!--  DATA0_2 -->
<g id="node4" class="node">
<title> DATA0_2</title>
<ellipse fill="#6495ed" stroke="#6495ed" cx="481.3563" cy="-18" rx="37.2132" ry="18"/>
<text text-anchor="middle" x="481.3563" y="-15" font-family="Helvetica,sans-Serif" font-size="10.00" fill="#ffffff"> DATA0_2</text>
</g>
<!-- (count_send_data != DATA_CONFIG_REG[13:2])&#45;&gt; DATA0_2 -->
<g id="edge6" class="edge">
<title>(count_send_data != DATA_CONFIG_REG[13:2])&#45;&gt; DATA0_2</title>
<path fill="none" stroke="#b03060" d="M407.3725,-216.1178C433.3661,-194.3564 478.0254,-154.6804 496.3563,-108 504.7575,-86.6061 496.4318,-61.2254 488.9036,-42.8796"/>
<polygon fill="#b03060" stroke="#b03060" points="485.9887,-35.9715 491.6123,-41.1963 487.3494,-39.1962 488.71,-42.4209 488.71,-42.4209 488.71,-42.4209 487.3494,-39.1962 485.8078,-43.6455 485.9887,-35.9715 485.9887,-35.9715"/>
</g>
<!--  DATA0_3 -->
<g id="node5" class="node">
<title> DATA0_3</title>
<ellipse fill="#6495ed" stroke="#6495ed" cx="574.3563" cy="-18" rx="37.2132" ry="18"/>
<text text-anchor="middle" x="574.3563" y="-15" font-family="Helvetica,sans-Serif" font-size="10.00" fill="#ffffff"> DATA0_3</text>
</g>
<!-- (count_send_data != DATA_CONFIG_REG[13:2])&#45;&gt; DATA0_3 -->
<g id="edge10" class="edge">
<title>(count_send_data != DATA_CONFIG_REG[13:2])&#45;&gt; DATA0_3</title>
<path fill="none" stroke="#b03060" d="M428.8724,-216.6292C447.4758,-207.9253 468.7192,-195.8159 484.3563,-180 523.8818,-140.0228 547.7059,-76.8723 561.5474,-42.4135"/>
<polygon fill="#b03060" stroke="#b03060" points="564.3516,-35.5145 564.6339,-43.1855 563.0337,-38.7569 561.7157,-41.9993 561.7157,-41.9993 561.7157,-41.9993 563.0337,-38.7569 558.7976,-40.8132 564.3516,-35.5145 564.3516,-35.5145"/>
</g>
<!--  DATA0_4 -->
<g id="node6" class="node">
<title> DATA0_4</title>
<ellipse fill="#6495ed" stroke="#6495ed" cx="667.3563" cy="-18" rx="37.2132" ry="18"/>
<text text-anchor="middle" x="667.3563" y="-15" font-family="Helvetica,sans-Serif" font-size="10.00" fill="#ffffff"> DATA0_4</text>
</g>
<!-- (count_send_data != DATA_CONFIG_REG[13:2])&#45;&gt; DATA0_4 -->
<g id="edge14" class="edge">
<title>(count_send_data != DATA_CONFIG_REG[13:2])&#45;&gt; DATA0_4</title>
<path fill="none" stroke="#b03060" d="M443.8804,-217.347C468.9353,-208.756 498.0009,-196.5367 521.3563,-180 576.486,-140.9657 622.9357,-74.7213 648.1584,-40.2837"/>
<polygon fill="#b03060" stroke="#b03060" points="652.3203,-34.6376 650.7023,-42.1413 650.2436,-37.4549 648.1668,-40.2722 648.1668,-40.2722 648.1668,-40.2722 650.2436,-37.4549 645.6312,-38.4031 652.3203,-34.6376 652.3203,-34.6376"/>
</g>
<!--  DATA0_5 -->
<g id="node7" class="node">
<title> DATA0_5</title>
<ellipse fill="#6495ed" stroke="#6495ed" cx="37.3563" cy="-18" rx="37.2132" ry="18"/>
<text text-anchor="middle" x="37.3563" y="-15" font-family="Helvetica,sans-Serif" font-size="10.00" fill="#ffffff"> DATA0_5</text>
</g>
<!-- (count_send_data != DATA_CONFIG_REG[13:2])&#45;&gt; DATA0_5 -->
<g id="edge18" class="edge">
<title>(count_send_data != DATA_CONFIG_REG[13:2])&#45;&gt; DATA0_5</title>
<path fill="none" stroke="#b03060" d="M289.1845,-221.0755C252.0904,-213.08 210.8979,-200.2976 177.3563,-180 118.1113,-144.148 68.0787,-77.8745 47.0968,-42.2157"/>
<polygon fill="#b03060" stroke="#b03060" points="43.5214,-35.928 49.7199,-40.4559 45.2515,-38.9705 46.9816,-42.013 46.9816,-42.013 46.9816,-42.013 45.2515,-38.9705 44.2433,-43.5701 43.5214,-35.928 43.5214,-35.928"/>
</g>
<!--  DATA0_6 -->
<g id="node8" class="node">
<title> DATA0_6</title>
<ellipse fill="#6495ed" stroke="#6495ed" cx="130.3563" cy="-18" rx="37.2132" ry="18"/>
<text text-anchor="middle" x="130.3563" y="-15" font-family="Helvetica,sans-Serif" font-size="10.00" fill="#ffffff"> DATA0_6</text>
</g>
<!-- (count_send_data != DATA_CONFIG_REG[13:2])&#45;&gt; DATA0_6 -->
<g id="edge22" class="edge">
<title>(count_send_data != DATA_CONFIG_REG[13:2])&#45;&gt; DATA0_6</title>
<path fill="none" stroke="#b03060" d="M298.5247,-219.9505C269.2425,-211.9162 238.2042,-199.4024 214.3563,-180 169.3817,-143.4092 141.8668,-78.9152 132.4256,-43.3378"/>
<polygon fill="#b03060" stroke="#b03060" points="130.6855,-36.2053 135.4049,-42.2592 131.5151,-39.6056 132.3447,-43.0059 132.3447,-43.0059 132.3447,-43.0059 131.5151,-39.6056 129.2844,-43.7525 130.6855,-36.2053 130.6855,-36.2053"/>
</g>
<!--  DATA0_7 -->
<g id="node9" class="node">
<title> DATA0_7</title>
<ellipse fill="#6495ed" stroke="#6495ed" cx="223.3563" cy="-18" rx="37.2132" ry="18"/>
<text text-anchor="middle" x="223.3563" y="-15" font-family="Helvetica,sans-Serif" font-size="10.00" fill="#ffffff"> DATA0_7</text>
</g>
<!-- (count_send_data != DATA_CONFIG_REG[13:2])&#45;&gt; DATA0_7 -->
<g id="edge26" class="edge">
<title>(count_send_data != DATA_CONFIG_REG[13:2])&#45;&gt; DATA0_7</title>
<path fill="none" stroke="#b03060" d="M333.4148,-217.2504C285.6857,-198.4999 219.9431,-163.2835 190.3563,-108 178.8391,-86.48 189.2461,-59.0499 201.5726,-40.1598"/>
<polygon fill="#b03060" stroke="#b03060" points="205.7975,-34.1018 204.3769,-41.6454 203.7954,-36.9726 201.7932,-39.8434 201.7932,-39.8434 201.7932,-39.8434 203.7954,-36.9726 199.2095,-38.0414 205.7975,-34.1018 205.7975,-34.1018"/>
</g>
<!--  DATA0_8 -->
<g id="node10" class="node">
<title> DATA0_8</title>
<ellipse fill="#6495ed" stroke="#6495ed" cx="370.3563" cy="-162" rx="37.2132" ry="18"/>
<text text-anchor="middle" x="370.3563" y="-159" font-family="Helvetica,sans-Serif" font-size="10.00" fill="#ffffff"> DATA0_8</text>
</g>
<!-- (count_send_data != DATA_CONFIG_REG[13:2])&#45;&gt; DATA0_8 -->
<g id="edge30" class="edge">
<title>(count_send_data != DATA_CONFIG_REG[13:2])&#45;&gt; DATA0_8</title>
<path fill="none" stroke="#b03060" d="M377.8618,-215.8314C374.8628,-207.2001 372.0718,-196.7394 370.2121,-187.3432"/>
<polygon fill="#b03060" stroke="#b03060" points="368.9836,-180.4133 373.3072,-186.7559 369.5946,-183.8595 370.2056,-187.3058 370.2056,-187.3058 370.2056,-187.3058 369.5946,-183.8595 367.104,-187.8557 368.9836,-180.4133 368.9836,-180.4133"/>
</g>
<!-- !(count_send_data != DATA_CONFIG_REG[13:2])&#45;&gt; DATA0_2 -->
<g id="edge4" class="edge">
<title>!(count_send_data != DATA_CONFIG_REG[13:2])&#45;&gt; DATA0_2</title>
<path fill="none" stroke="#b03060" d="M378.3282,-72.2022C398.3294,-60.3769 425.9658,-44.9957 447.6532,-33.6405"/>
<polygon fill="#b03060" stroke="#b03060" points="453.8886,-30.4028 449.1278,-36.4243 450.7824,-32.0157 447.6762,-33.6286 447.6762,-33.6286 447.6762,-33.6286 450.7824,-32.0157 446.2246,-30.833 453.8886,-30.4028 453.8886,-30.4028"/>
</g>
<!-- !(count_send_data != DATA_CONFIG_REG[13:2])&#45;&gt; DATA0_3 -->
<g id="edge8" class="edge">
<title>!(count_send_data != DATA_CONFIG_REG[13:2])&#45;&gt; DATA0_3</title>
<path fill="none" stroke="#b03060" d="M402.7434,-73.083C435.7956,-62.8906 479.7372,-49.337 518.3563,-36 523.8769,-34.0935 529.719,-31.9553 535.4984,-29.8366"/>
<polygon fill="#b03060" stroke="#b03060" points="542.2311,-27.3733 536.7396,-32.7367 538.9442,-28.5759 535.6573,-29.7785 535.6573,-29.7785 535.6573,-29.7785 538.9442,-28.5759 534.5749,-26.8203 542.2311,-27.3733 542.2311,-27.3733"/>
</g>
<!-- !(count_send_data != DATA_CONFIG_REG[13:2])&#45;&gt; DATA0_4 -->
<g id="edge12" class="edge">
<title>!(count_send_data != DATA_CONFIG_REG[13:2])&#45;&gt; DATA0_4</title>
<path fill="none" stroke="#b03060" d="M436.5299,-75.3645C487.5775,-66.106 553.6921,-52.7246 611.3563,-36 617.026,-34.3556 622.9767,-32.3254 628.8306,-30.2276"/>
<polygon fill="#b03060" stroke="#b03060" points="635.6355,-27.753 630.1335,-33.1057 632.3462,-28.9492 629.0569,-30.1454 629.0569,-30.1454 629.0569,-30.1454 632.3462,-28.9492 627.9804,-27.1851 635.6355,-27.753 635.6355,-27.753"/>
</g>
<!-- !(count_send_data != DATA_CONFIG_REG[13:2])&#45;&gt; DATA0_5 -->
<g id="edge16" class="edge">
<title>!(count_send_data != DATA_CONFIG_REG[13:2])&#45;&gt; DATA0_5</title>
<path fill="none" stroke="#b03060" d="M257.9842,-76.3369C203.8496,-67.0538 135.0718,-53.3195 75.3563,-36 73.1744,-35.3672 70.9509,-34.6772 68.7262,-33.9483"/>
<polygon fill="#b03060" stroke="#b03060" points="62.0888,-31.6626 69.7331,-30.9635 65.3981,-32.8022 68.7074,-33.9419 68.7074,-33.9419 68.7074,-33.9419 65.3981,-32.8022 67.6817,-36.9202 62.0888,-31.6626 62.0888,-31.6626"/>
</g>
<!-- !(count_send_data != DATA_CONFIG_REG[13:2])&#45;&gt; DATA0_6 -->
<g id="edge20" class="edge">
<title>!(count_send_data != DATA_CONFIG_REG[13:2])&#45;&gt; DATA0_6</title>
<path fill="none" stroke="#b03060" d="M288.7058,-73.7913C252.9717,-63.5236 207.877,-49.6484 168.3563,-36 166.3819,-35.3181 164.3664,-34.6067 162.3419,-33.877"/>
<polygon fill="#b03060" stroke="#b03060" points="155.4716,-31.3431 163.1292,-30.81 158.7554,-32.5543 162.0392,-33.7654 162.0392,-33.7654 162.0392,-33.7654 158.7554,-32.5543 160.9491,-36.7208 155.4716,-31.3431 155.4716,-31.3431"/>
</g>
<!-- !(count_send_data != DATA_CONFIG_REG[13:2])&#45;&gt; DATA0_7 -->
<g id="edge24" class="edge">
<title>!(count_send_data != DATA_CONFIG_REG[13:2])&#45;&gt; DATA0_7</title>
<path fill="none" stroke="#b03060" d="M315.2508,-72.5708C294.7041,-61.7273 269.688,-47.7882 250.8781,-36.7122"/>
<polygon fill="#b03060" stroke="#b03060" points="244.7525,-33.0744 252.3796,-33.9403 247.7618,-34.8616 250.7711,-36.6487 250.7711,-36.6487 250.7711,-36.6487 247.7618,-34.8616 249.1627,-39.3571 244.7525,-33.0744 244.7525,-33.0744"/>
</g>
<!-- !(count_send_data != DATA_CONFIG_REG[13:2])&#45;&gt; DATA0_8 -->
<g id="edge28" class="edge">
<title>!(count_send_data != DATA_CONFIG_REG[13:2])&#45;&gt; DATA0_8</title>
<path fill="none" stroke="#b03060" d="M362.9356,-108.4133C365.9306,-117.0787 368.7108,-127.5464 370.5528,-136.9223"/>
<polygon fill="#b03060" stroke="#b03060" points="371.7665,-143.8314 367.4528,-137.482 371.1609,-140.3841 370.5553,-136.9369 370.5553,-136.9369 370.5553,-136.9369 371.1609,-140.3841 373.6578,-136.3919 371.7665,-143.8314 371.7665,-143.8314"/>
</g>
<!--  RESPONSE_DATA0_1 -->
<g id="node11" class="node">
<title> RESPONSE_DATA0_1</title>
<ellipse fill="#6495ed" stroke="#6495ed" cx="352.3563" cy="-18" rx="74.2215" ry="18"/>
<text text-anchor="middle" x="352.3563" y="-15" font-family="Helvetica,sans-Serif" font-size="10.00" fill="#ffffff"> RESPONSE_DATA0_1</text>
</g>
<!-- !(count_send_data != DATA_CONFIG_REG[13:2])&#45;&gt; RESPONSE_DATA0_1 -->
<g id="edge32" class="edge">
<title>!(count_send_data != DATA_CONFIG_REG[13:2])&#45;&gt; RESPONSE_DATA0_1</title>
<path fill="none" stroke="#b03060" d="M352.3563,-71.8314C352.3563,-63.2848 352.3563,-52.9443 352.3563,-43.6198"/>
<polygon fill="#b03060" stroke="#b03060" points="352.3563,-36.4133 355.5064,-43.4132 352.3564,-39.9133 352.3564,-43.4133 352.3564,-43.4133 352.3564,-43.4133 352.3564,-39.9133 349.2064,-43.4133 352.3563,-36.4133 352.3563,-36.4133"/>
</g>
<!--  DATA0_2&#45;&gt;(count_send_data != DATA_CONFIG_REG[13:2]) -->
<g id="edge5" class="edge">
<title> DATA0_2&#45;&gt;(count_send_data != DATA_CONFIG_REG[13:2])</title>
<path fill="none" stroke="#b03060" d="M498.3538,-34.285C511.164,-52.589 524.1682,-83.0136 514.3563,-108 497.1199,-151.8931 456.6054,-189.5933 425.9895,-212.0304"/>
<polygon fill="#b03060" stroke="#b03060" points="420.0081,-216.3116 423.8669,-209.6759 422.8542,-214.2745 425.7003,-212.2373 425.7003,-212.2373 425.7003,-212.2373 422.8542,-214.2745 427.5337,-214.7988 420.0081,-216.3116 420.0081,-216.3116"/>
</g>
<!--  DATA0_2&#45;&gt;!(count_send_data != DATA_CONFIG_REG[13:2]) -->
<g id="edge7" class="edge">
<title> DATA0_2&#45;&gt;!(count_send_data != DATA_CONFIG_REG[13:2])</title>
<path fill="none" stroke="#b03060" d="M459.9601,-33.0744C442.4646,-43.562 417.3614,-57.6791 395.7493,-69.2308"/>
<polygon fill="#b03060" stroke="#b03060" points="389.4618,-72.5708 394.166,-66.505 392.5528,-70.9288 395.6438,-69.2868 395.6438,-69.2868 395.6438,-69.2868 392.5528,-70.9288 397.1215,-72.0687 389.4618,-72.5708 389.4618,-72.5708"/>
</g>
<!--  DATA0_3&#45;&gt;(count_send_data != DATA_CONFIG_REG[13:2]) -->
<g id="edge9" class="edge">
<title> DATA0_3&#45;&gt;(count_send_data != DATA_CONFIG_REG[13:2])</title>
<path fill="none" stroke="#b03060" d="M574.7246,-36.0229C568.7612,-68.4955 544.4722,-137.4028 502.3563,-180 488.0444,-194.4755 469.0362,-205.8462 450.6035,-214.3427"/>
<polygon fill="#b03060" stroke="#b03060" points="443.8482,-217.3433 448.9667,-211.6229 447.0469,-215.9225 450.2455,-214.5016 450.2455,-214.5016 450.2455,-214.5016 447.0469,-215.9225 451.5243,-217.3804 443.8482,-217.3433 443.8482,-217.3433"/>
</g>
<!--  DATA0_3&#45;&gt;!(count_send_data != DATA_CONFIG_REG[13:2]) -->
<g id="edge11" class="edge">
<title> DATA0_3&#45;&gt;!(count_send_data != DATA_CONFIG_REG[13:2])</title>
<path fill="none" stroke="#b03060" d="M549.241,-31.3431C544.9676,-32.9559 540.5684,-34.5454 536.3563,-36 499.3056,-48.7954 457.356,-61.7901 422.813,-71.8248"/>
<polygon fill="#b03060" stroke="#b03060" points="416.0068,-73.7913 421.8573,-68.822 419.3692,-72.8197 422.7317,-71.8482 422.7317,-71.8482 422.7317,-71.8482 419.3692,-72.8197 423.6061,-74.8744 416.0068,-73.7913 416.0068,-73.7913"/>
</g>
<!--  DATA0_4&#45;&gt;(count_send_data != DATA_CONFIG_REG[13:2]) -->
<g id="edge13" class="edge">
<title> DATA0_4&#45;&gt;(count_send_data != DATA_CONFIG_REG[13:2])</title>
<path fill="none" stroke="#b03060" d="M661.8442,-35.9069C645.0266,-68.8096 596.9238,-139.2396 539.3563,-180 517.2252,-195.6698 489.9669,-207.463 464.6862,-215.966"/>
<polygon fill="#b03060" stroke="#b03060" points="457.9613,-218.1671 463.6341,-212.9959 461.2876,-217.0784 464.614,-215.9896 464.614,-215.9896 464.614,-215.9896 461.2876,-217.0784 465.5939,-218.9833 457.9613,-218.1671 457.9613,-218.1671"/>
</g>
<!--  DATA0_4&#45;&gt;!(count_send_data != DATA_CONFIG_REG[13:2]) -->
<g id="edge15" class="edge">
<title> DATA0_4&#45;&gt;!(count_send_data != DATA_CONFIG_REG[13:2])</title>
<path fill="none" stroke="#b03060" d="M642.6238,-31.6626C638.2502,-33.2402 633.7201,-34.7344 629.3563,-36 572.2068,-52.5753 506.7569,-65.8669 453.786,-75.1157"/>
<polygon fill="#b03060" stroke="#b03060" points="446.7284,-76.3369 453.0888,-72.0394 450.1772,-75.7401 453.6259,-75.1433 453.6259,-75.1433 453.6259,-75.1433 450.1772,-75.7401 454.1631,-78.2472 446.7284,-76.3369 446.7284,-76.3369"/>
</g>
<!--  DATA0_5&#45;&gt;(count_send_data != DATA_CONFIG_REG[13:2]) -->
<g id="edge17" class="edge">
<title> DATA0_5&#45;&gt;(count_send_data != DATA_CONFIG_REG[13:2])</title>
<path fill="none" stroke="#b03060" d="M52.868,-34.6395C78.5234,-67.6202 131.6065,-141.4219 195.3563,-180 225.0758,-197.9847 260.802,-210.0693 293.4214,-218.1517"/>
<polygon fill="#b03060" stroke="#b03060" points="300.3316,-219.8164 292.7885,-221.2393 296.929,-218.9966 293.5263,-218.1769 293.5263,-218.1769 293.5263,-218.1769 296.929,-218.9966 294.2641,-215.1145 300.3316,-219.8164 300.3316,-219.8164"/>
</g>
<!--  DATA0_5&#45;&gt;!(count_send_data != DATA_CONFIG_REG[13:2]) -->
<g id="edge19" class="edge">
<title> DATA0_5&#45;&gt;!(count_send_data != DATA_CONFIG_REG[13:2])</title>
<path fill="none" stroke="#b03060" d="M69.0771,-27.753C77.0358,-30.6775 85.468,-33.7121 93.3563,-36 148.4301,-51.9733 211.2122,-64.897 261.2142,-74.0919"/>
<polygon fill="#b03060" stroke="#b03060" points="268.1827,-75.3645 260.7307,-77.2056 264.7397,-74.7357 261.2966,-74.1069 261.2966,-74.1069 261.2966,-74.1069 264.7397,-74.7357 261.8626,-71.0081 268.1827,-75.3645 268.1827,-75.3645"/>
</g>
<!--  DATA0_6&#45;&gt;(count_send_data != DATA_CONFIG_REG[13:2]) -->
<g id="edge21" class="edge">
<title> DATA0_6&#45;&gt;(count_send_data != DATA_CONFIG_REG[13:2])</title>
<path fill="none" stroke="#b03060" d="M140.8034,-35.4276C155.6013,-68.4816 183.8053,-140.4995 232.3563,-180 253.0862,-196.8656 279.2492,-208.5262 304.2213,-216.564"/>
<polygon fill="#b03060" stroke="#b03060" points="311.2277,-218.7364 303.6088,-219.672 307.8847,-217.6998 304.5416,-216.6633 304.5416,-216.6633 304.5416,-216.6633 307.8847,-217.6998 305.4745,-213.6546 311.2277,-218.7364 311.2277,-218.7364"/>
</g>
<!--  DATA0_6&#45;&gt;!(count_send_data != DATA_CONFIG_REG[13:2]) -->
<g id="edge23" class="edge">
<title> DATA0_6&#45;&gt;!(count_send_data != DATA_CONFIG_REG[13:2])</title>
<path fill="none" stroke="#b03060" d="M162.4815,-27.3733C170.3724,-30.2466 178.6754,-33.3474 186.3563,-36 222.4109,-48.4514 263.1045,-61.0915 295.2453,-71.0091"/>
<polygon fill="#b03060" stroke="#b03060" points="301.9692,-73.083 294.3517,-74.0298 298.6247,-72.0514 295.2802,-71.0197 295.2802,-71.0197 295.2802,-71.0197 298.6247,-72.0514 296.2087,-68.0097 301.9692,-73.083 301.9692,-73.083"/>
</g>
<!--  DATA0_7&#45;&gt;(count_send_data != DATA_CONFIG_REG[13:2]) -->
<g id="edge25" class="edge">
<title> DATA0_7&#45;&gt;(count_send_data != DATA_CONFIG_REG[13:2])</title>
<path fill="none" stroke="#b03060" d="M217.7445,-36.1496C208.8893,-54.9973 195.995,-84.9027 208.3563,-108 236.233,-160.088 296.2065,-194.3618 339.3611,-213.8332"/>
<polygon fill="#b03060" stroke="#b03060" points="345.8675,-216.7153 338.1915,-216.7603 342.6674,-215.2978 339.4673,-213.8802 339.4673,-213.8802 339.4673,-213.8802 342.6674,-215.2978 340.7431,-211.0001 345.8675,-216.7153 345.8675,-216.7153"/>
</g>
<!--  DATA0_7&#45;&gt;!(count_send_data != DATA_CONFIG_REG[13:2]) -->
<g id="edge27" class="edge">
<title> DATA0_7&#45;&gt;!(count_send_data != DATA_CONFIG_REG[13:2])</title>
<path fill="none" stroke="#b03060" d="M250.824,-30.4028C271.2045,-40.8893 298.875,-56.1502 320.2512,-68.6037"/>
<polygon fill="#b03060" stroke="#b03060" points="326.3844,-72.2022 318.7528,-71.3767 323.3656,-70.431 320.3469,-68.6598 320.3469,-68.6598 320.3469,-68.6598 323.3656,-70.431 321.941,-65.9429 326.3844,-72.2022 326.3844,-72.2022"/>
</g>
<!--  DATA0_8&#45;&gt;(count_send_data != DATA_CONFIG_REG[13:2]) -->
<g id="edge29" class="edge">
<title> DATA0_8&#45;&gt;(count_send_data != DATA_CONFIG_REG[13:2])</title>
<path fill="none" stroke="#b03060" d="M380.5878,-179.4177C383.6909,-188.2019 386.5955,-199.0197 388.5093,-208.7015"/>
<polygon fill="#b03060" stroke="#b03060" points="389.7665,-215.8314 385.4487,-209.4848 389.1587,-212.3845 388.5509,-208.9377 388.5509,-208.9377 388.5509,-208.9377 389.1587,-212.3845 391.653,-208.3907 389.7665,-215.8314 389.7665,-215.8314"/>
</g>
<!--  DATA0_8&#45;&gt;!(count_send_data != DATA_CONFIG_REG[13:2]) -->
<g id="edge31" class="edge">
<title> DATA0_8&#45;&gt;!(count_send_data != DATA_CONFIG_REG[13:2])</title>
<path fill="none" stroke="#b03060" d="M360.1208,-144.5708C357.0052,-135.749 354.0901,-124.8784 352.1774,-115.1674"/>
<polygon fill="#b03060" stroke="#b03060" points="350.9236,-108.0206 355.2359,-114.3709 351.5284,-111.4679 352.1333,-114.9153 352.1333,-114.9153 352.1333,-114.9153 351.5284,-111.4679 349.0307,-115.4597 350.9236,-108.0206 350.9236,-108.0206"/>
</g>
</g>
</svg>
