<?xml version="1.0" encoding="UTF-8" standalone="no"?>
<!DOCTYPE svg PUBLIC "-//W3C//DTD SVG 1.1//EN"
 "http://www.w3.org/Graphics/SVG/1.1/DTD/svg11.dtd">
<!-- Generated by graphviz version 2.40.1 (20161225.0304)
 -->
<!-- Title: G Pages: 1 -->
<svg width="629pt" height="296pt"
 viewBox="0.00 0.00 629.23 296.00" xmlns="http://www.w3.org/2000/svg" xmlns:xlink="http://www.w3.org/1999/xlink">
<g id="graph0" class="graph" transform="scale(1 1) rotate(0) translate(4 292)">
<title>G</title>
<polygon fill="#ffffff" stroke="transparent" points="-4,4 -4,-292 625.2329,-292 625.2329,4 -4,4"/>
<!--  IDLE -->
<g id="node1" class="node">
<title> IDLE</title>
<ellipse fill="#6495ed" stroke="#6495ed" cx="354.7198" cy="-270" rx="27" ry="18"/>
<text text-anchor="middle" x="354.7198" y="-267" font-family="Helvetica,sans-Serif" font-size="10.00" fill="#ffffff"> IDLE</text>
</g>
<!-- (req_0 == 1&#39;b1) -->
<g id="node2" class="node">
<title>(req_0 == 1&#39;b1)</title>
<ellipse fill="#6495ed" stroke="#6495ed" cx="50.7198" cy="-186" rx="50.9406" ry="18"/>
<text text-anchor="middle" x="50.7198" y="-183" font-family="Helvetica,sans-Serif" font-size="10.00" fill="#ffffff">(req_0 == 1&#39;b1)</text>
</g>
<!--  IDLE&#45;&gt;(req_0 == 1&#39;b1) -->
<g id="edge1" class="edge">
<title> IDLE&#45;&gt;(req_0 == 1&#39;b1)</title>
<path fill="none" stroke="#b03060" d="M327.5555,-267.7914C272.4094,-263.0166 149.2932,-250.7933 110.7198,-234 96.659,-227.8785 83.127,-217.5752 72.4844,-208.0804"/>
<polygon fill="#b03060" stroke="#b03060" points="67.1949,-203.2153 74.4795,-205.6356 69.771,-205.5847 72.3471,-207.9541 72.3471,-207.9541 72.3471,-207.9541 69.771,-205.5847 70.2147,-210.2726 67.1949,-203.2153 67.1949,-203.2153"/>
<text text-anchor="middle" x="113.2198" y="-225" font-family="Times,serif" font-size="10.00" fill="#000080">1</text>
</g>
<!-- !(req_0 == 1&#39;b1) &amp; (req_1 == 1&#39;b1) -->
<g id="node4" class="node">
<title>!(req_0 == 1&#39;b1) &amp; (req_1 == 1&#39;b1)</title>
<ellipse fill="#6495ed" stroke="#6495ed" cx="258.7198" cy="-186" rx="100.6841" ry="18"/>
<text text-anchor="middle" x="258.7198" y="-183" font-family="Helvetica,sans-Serif" font-size="10.00" fill="#ffffff">!(req_0 == 1&#39;b1) &amp; (req_1 == 1&#39;b1)</text>
</g>
<!--  IDLE&#45;&gt;!(req_0 == 1&#39;b1) &amp; (req_1 == 1&#39;b1) -->
<g id="edge3" class="edge">
<title> IDLE&#45;&gt;!(req_0 == 1&#39;b1) &amp; (req_1 == 1&#39;b1)</title>
<path fill="none" stroke="#b03060" d="M337.9979,-255.3683C323.2291,-242.4456 301.4631,-223.4003 284.4724,-208.5335"/>
<polygon fill="#b03060" stroke="#b03060" points="278.9104,-203.6668 286.2528,-205.9057 281.5444,-205.9715 284.1785,-208.2763 284.1785,-208.2763 284.1785,-208.2763 281.5444,-205.9715 282.1042,-210.6469 278.9104,-203.6668 278.9104,-203.6668"/>
<text text-anchor="middle" x="315.2198" y="-225" font-family="Times,serif" font-size="10.00" fill="#000080">2</text>
</g>
<!-- !(req_1 == 1&#39;b1) &amp; !(req_0 == 1&#39;b1) -->
<g id="node6" class="node">
<title>!(req_1 == 1&#39;b1) &amp; !(req_0 == 1&#39;b1)</title>
<ellipse fill="#6495ed" stroke="#6495ed" cx="518.7198" cy="-186" rx="102.5261" ry="18"/>
<text text-anchor="middle" x="518.7198" y="-183" font-family="Helvetica,sans-Serif" font-size="10.00" fill="#ffffff">!(req_1 == 1&#39;b1) &amp; !(req_0 == 1&#39;b1)</text>
</g>
<!--  IDLE&#45;&gt;!(req_1 == 1&#39;b1) &amp; !(req_0 == 1&#39;b1) -->
<g id="edge5" class="edge">
<title> IDLE&#45;&gt;!(req_1 == 1&#39;b1) &amp; !(req_0 == 1&#39;b1)</title>
<path fill="none" stroke="#b03060" d="M376.16,-259.0185C402.2073,-245.6771 446.6745,-222.9013 479.0331,-206.3274"/>
<polygon fill="#b03060" stroke="#b03060" points="485.3343,-203.0999 480.54,-209.0947 482.2192,-204.6955 479.104,-206.2911 479.104,-206.2911 479.104,-206.2911 482.2192,-204.6955 477.668,-203.4874 485.3343,-203.0999 485.3343,-203.0999"/>
<text text-anchor="middle" x="449.2198" y="-225" font-family="Times,serif" font-size="10.00" fill="#000080">3</text>
</g>
<!--  GNT0 -->
<g id="node3" class="node">
<title> GNT0</title>
<ellipse fill="#6495ed" stroke="#6495ed" cx="68.7198" cy="-102" rx="27.1567" ry="18"/>
<text text-anchor="middle" x="68.7198" y="-99" font-family="Helvetica,sans-Serif" font-size="10.00" fill="#ffffff"> GNT0</text>
</g>
<!-- (req_0 == 1&#39;b1)&#45;&gt; GNT0 -->
<g id="edge2" class="edge">
<title>(req_0 == 1&#39;b1)&#45;&gt; GNT0</title>
<path fill="none" stroke="#b03060" d="M41.8158,-167.9447C38.5113,-158.8267 36.3076,-147.6751 39.7198,-138 41.6342,-132.5718 44.7521,-127.3596 48.2488,-122.6684"/>
<polygon fill="#b03060" stroke="#b03060" points="52.8185,-117.0278 50.8596,-124.4497 50.6153,-119.7473 48.412,-122.4668 48.412,-122.4668 48.412,-122.4668 50.6153,-119.7473 45.9644,-120.4839 52.8185,-117.0278 52.8185,-117.0278"/>
<text text-anchor="middle" x="42.2198" y="-141" font-family="Times,serif" font-size="10.00" fill="#000080">1</text>
</g>
<!-- (req_0 == 1&#39;b1)&#45;&gt; GNT0 -->
<g id="edge8" class="edge">
<title>(req_0 == 1&#39;b1)&#45;&gt; GNT0</title>
<path fill="none" stroke="#b03060" d="M54.6256,-167.7733C57.1905,-155.8037 60.5784,-139.9931 63.3899,-126.8732"/>
<polygon fill="#b03060" stroke="#b03060" points="64.8836,-119.9026 66.4969,-127.4073 64.1502,-123.3249 63.4168,-126.7472 63.4168,-126.7472 63.4168,-126.7472 64.1502,-123.3249 60.3367,-126.0872 64.8836,-119.9026 64.8836,-119.9026"/>
<text text-anchor="middle" x="64.2198" y="-141" font-family="Times,serif" font-size="10.00" fill="#000080">4</text>
</g>
<!--  GNT0&#45;&gt;(req_0 == 1&#39;b1) -->
<g id="edge7" class="edge">
<title> GNT0&#45;&gt;(req_0 == 1&#39;b1)</title>
<path fill="none" stroke="#b03060" d="M70.6651,-120.0068C71.161,-129.1124 71.0174,-140.2675 68.7198,-150 67.7736,-154.0082 66.309,-158.079 64.6149,-161.971"/>
<polygon fill="#b03060" stroke="#b03060" points="61.5981,-168.3098 61.7621,-160.6354 63.1022,-165.1494 64.6064,-161.9891 64.6064,-161.9891 64.6064,-161.9891 63.1022,-165.1494 67.4507,-163.3428 61.5981,-168.3098 61.5981,-168.3098"/>
<text text-anchor="middle" x="73.2198" y="-141" font-family="Times,serif" font-size="10.00" fill="#000080">4</text>
</g>
<!-- !(req_0 == 1&#39;b1) -->
<g id="node7" class="node">
<title>!(req_0 == 1&#39;b1)</title>
<ellipse fill="#6495ed" stroke="#6495ed" cx="126.7198" cy="-18" rx="52.2821" ry="18"/>
<text text-anchor="middle" x="126.7198" y="-15" font-family="Helvetica,sans-Serif" font-size="10.00" fill="#ffffff">!(req_0 == 1&#39;b1)</text>
</g>
<!--  GNT0&#45;&gt;!(req_0 == 1&#39;b1) -->
<g id="edge9" class="edge">
<title> GNT0&#45;&gt;!(req_0 == 1&#39;b1)</title>
<path fill="none" stroke="#b03060" d="M80.1788,-85.4043C88.7675,-72.9655 100.6442,-55.7648 110.25,-41.8528"/>
<polygon fill="#b03060" stroke="#b03060" points="114.4838,-35.7212 113.0985,-43.2713 112.4951,-38.6014 110.5064,-41.4815 110.5064,-41.4815 110.5064,-41.4815 112.4951,-38.6014 107.9143,-39.6917 114.4838,-35.7212 114.4838,-35.7212"/>
<text text-anchor="middle" x="104.2198" y="-57" font-family="Times,serif" font-size="10.00" fill="#000080">5</text>
</g>
<!--  GNT1 -->
<g id="node5" class="node">
<title> GNT1</title>
<ellipse fill="#6495ed" stroke="#6495ed" cx="270.7198" cy="-102" rx="27.1567" ry="18"/>
<text text-anchor="middle" x="270.7198" y="-99" font-family="Helvetica,sans-Serif" font-size="10.00" fill="#ffffff"> GNT1</text>
</g>
<!-- !(req_0 == 1&#39;b1) &amp; (req_1 == 1&#39;b1)&#45;&gt; GNT1 -->
<g id="edge4" class="edge">
<title>!(req_0 == 1&#39;b1) &amp; (req_1 == 1&#39;b1)&#45;&gt; GNT1</title>
<path fill="none" stroke="#b03060" d="M261.3237,-167.7733C263.022,-155.8851 265.2615,-140.2081 267.1282,-127.1413"/>
<polygon fill="#b03060" stroke="#b03060" points="268.1211,-120.1912 270.2494,-127.5663 267.6261,-123.656 267.1311,-127.1208 267.1311,-127.1208 267.1311,-127.1208 267.6261,-123.656 264.0127,-126.6753 268.1211,-120.1912 268.1211,-120.1912"/>
<text text-anchor="middle" x="268.2198" y="-141" font-family="Times,serif" font-size="10.00" fill="#000080">2</text>
</g>
<!-- (req_1 == 1&#39;b1) -->
<g id="node8" class="node">
<title>(req_1 == 1&#39;b1)</title>
<ellipse fill="#6495ed" stroke="#6495ed" cx="258.7198" cy="-18" rx="50.9406" ry="18"/>
<text text-anchor="middle" x="258.7198" y="-15" font-family="Helvetica,sans-Serif" font-size="10.00" fill="#ffffff">(req_1 == 1&#39;b1)</text>
</g>
<!--  GNT1&#45;&gt;(req_1 == 1&#39;b1) -->
<g id="edge11" class="edge">
<title> GNT1&#45;&gt;(req_1 == 1&#39;b1)</title>
<path fill="none" stroke="#b03060" d="M265.5828,-84.1862C264.1067,-78.4278 262.6469,-71.9844 261.7198,-66 260.5886,-58.6977 259.8809,-50.7078 259.4392,-43.3783"/>
<polygon fill="#b03060" stroke="#b03060" points="259.0803,-36.3189 262.5818,-43.1499 259.2581,-39.8144 259.4358,-43.3099 259.4358,-43.3099 259.4358,-43.3099 259.2581,-39.8144 256.2899,-43.4699 259.0803,-36.3189 259.0803,-36.3189"/>
<text text-anchor="middle" x="264.2198" y="-57" font-family="Times,serif" font-size="10.00" fill="#000080">6</text>
</g>
<!-- !(req_1 == 1&#39;b1) -->
<g id="node9" class="node">
<title>!(req_1 == 1&#39;b1)</title>
<ellipse fill="#6495ed" stroke="#6495ed" cx="383.7198" cy="-18" rx="52.2821" ry="18"/>
<text text-anchor="middle" x="383.7198" y="-15" font-family="Helvetica,sans-Serif" font-size="10.00" fill="#ffffff">!(req_1 == 1&#39;b1)</text>
</g>
<!--  GNT1&#45;&gt;!(req_1 == 1&#39;b1) -->
<g id="edge13" class="edge">
<title> GNT1&#45;&gt;!(req_1 == 1&#39;b1)</title>
<path fill="none" stroke="#b03060" d="M288.8752,-88.5039C307.0096,-75.0236 335.1223,-54.1256 356.0389,-38.577"/>
<polygon fill="#b03060" stroke="#b03060" points="361.7333,-34.344 357.9947,-41.0481 358.9244,-36.432 356.1154,-38.5201 356.1154,-38.5201 356.1154,-38.5201 358.9244,-36.432 354.2362,-35.9921 361.7333,-34.344 361.7333,-34.344"/>
<text text-anchor="middle" x="337.2198" y="-57" font-family="Times,serif" font-size="10.00" fill="#000080">7</text>
</g>
<!-- !(req_1 == 1&#39;b1) &amp; !(req_0 == 1&#39;b1)&#45;&gt; IDLE -->
<g id="edge6" class="edge">
<title>!(req_1 == 1&#39;b1) &amp; !(req_0 == 1&#39;b1)&#45;&gt; IDLE</title>
<path fill="none" stroke="#b03060" d="M498.8248,-203.7092C486.9432,-213.6123 471.1932,-225.6123 455.7198,-234 433.9071,-245.8241 407.4295,-255.0945 387.0574,-261.2651"/>
<polygon fill="#b03060" stroke="#b03060" points="380.1238,-263.3175 385.9418,-258.3101 383.4799,-262.324 386.8359,-261.3306 386.8359,-261.3306 386.8359,-261.3306 383.4799,-262.324 387.73,-264.351 380.1238,-263.3175 380.1238,-263.3175"/>
<text text-anchor="middle" x="476.2198" y="-225" font-family="Times,serif" font-size="10.00" fill="#000080">3</text>
</g>
<!-- !(req_0 == 1&#39;b1)&#45;&gt; IDLE -->
<g id="edge10" class="edge">
<title>!(req_0 == 1&#39;b1)&#45;&gt; IDLE</title>
<path fill="none" stroke="#b03060" d="M123.0515,-36.0348C116.7813,-72.3376 108.2924,-154.9408 148.7198,-204 170.8455,-230.8497 268.8551,-253.4071 321.3132,-263.8203"/>
<polygon fill="#b03060" stroke="#b03060" points="328.4003,-265.2083 320.9253,-266.9542 324.9655,-264.5356 321.5308,-263.8629 321.5308,-263.8629 321.5308,-263.8629 324.9655,-264.5356 322.1362,-260.7716 328.4003,-265.2083 328.4003,-265.2083"/>
<text text-anchor="middle" x="126.2198" y="-141" font-family="Times,serif" font-size="10.00" fill="#000080">5</text>
</g>
<!-- (req_1 == 1&#39;b1)&#45;&gt; GNT1 -->
<g id="edge12" class="edge">
<title>(req_1 == 1&#39;b1)&#45;&gt; GNT1</title>
<path fill="none" stroke="#b03060" d="M261.3186,-36.1912C263.0158,-48.0717 265.2552,-63.7476 267.1226,-76.8196"/>
<polygon fill="#b03060" stroke="#b03060" points="268.116,-83.7733 264.0076,-77.2891 267.621,-80.3084 267.126,-76.8436 267.126,-76.8436 267.126,-76.8436 267.621,-80.3084 270.2443,-76.3981 268.116,-83.7733 268.116,-83.7733"/>
<text text-anchor="middle" x="268.2198" y="-57" font-family="Times,serif" font-size="10.00" fill="#000080">6</text>
</g>
<!-- !(req_1 == 1&#39;b1)&#45;&gt; IDLE -->
<g id="edge14" class="edge">
<title>!(req_1 == 1&#39;b1)&#45;&gt; IDLE</title>
<path fill="none" stroke="#b03060" d="M383.036,-36.0419C381.6021,-69.3685 377.6451,-142.7698 368.7198,-204 366.7143,-217.7586 363.5586,-232.9481 360.7505,-245.2834"/>
<polygon fill="#b03060" stroke="#b03060" points="359.1487,-252.184 357.6632,-244.653 359.9401,-248.7747 360.7316,-245.3653 360.7316,-245.3653 360.7316,-245.3653 359.9401,-248.7747 363.8,-246.0776 359.1487,-252.184 359.1487,-252.184"/>
<text text-anchor="middle" x="379.2198" y="-141" font-family="Times,serif" font-size="10.00" fill="#000080">7</text>
</g>
</g>
</svg>
