<?xml version="1.0" encoding="UTF-8" standalone="no"?>
<!DOCTYPE svg PUBLIC "-//W3C//DTD SVG 1.1//EN"
 "http://www.w3.org/Graphics/SVG/1.1/DTD/svg11.dtd">
<!-- Generated by graphviz version 2.40.1 (20161225.0304)
 -->
<!-- Title: G Pages: 1 -->
<svg width="630pt" height="260pt"
 viewBox="0.00 0.00 629.56 260.00" xmlns="http://www.w3.org/2000/svg" xmlns:xlink="http://www.w3.org/1999/xlink">
<g id="graph0" class="graph" transform="scale(1 1) rotate(0) translate(4 256)">
<title>G</title>
<polygon fill="#ffffff" stroke="transparent" points="-4,4 -4,-256 625.5618,-256 625.5618,4 -4,4"/>
<!--  IDLE -->
<g id="node1" class="node">
<title> IDLE</title>
<ellipse fill="#6495ed" stroke="#6495ed" cx="360.8419" cy="-234" rx="27" ry="18"/>
<text text-anchor="middle" x="360.8419" y="-231" font-family="Helvetica,sans-Serif" font-size="10.00" fill="#ffffff"> IDLE</text>
</g>
<!-- (req_0 == 1&#39;b1) -->
<g id="node2" class="node">
<title>(req_0 == 1&#39;b1)</title>
<ellipse fill="#6495ed" stroke="#6495ed" cx="570.8419" cy="-162" rx="50.9406" ry="18"/>
<text text-anchor="middle" x="570.8419" y="-159" font-family="Helvetica,sans-Serif" font-size="10.00" fill="#ffffff">(req_0 == 1&#39;b1)</text>
</g>
<!--  IDLE&#45;&gt;(req_0 == 1&#39;b1) -->
<g id="edge1" class="edge">
<title> IDLE&#45;&gt;(req_0 == 1&#39;b1)</title>
<path fill="none" stroke="#b03060" d="M384.9316,-225.7407C419.5991,-213.8547 484.1242,-191.7318 527.2832,-176.9344"/>
<polygon fill="#b03060" stroke="#b03060" points="534.0187,-174.6251 528.4187,-179.8752 530.7079,-175.7603 527.397,-176.8955 527.397,-176.8955 527.397,-176.8955 530.7079,-175.7603 526.3754,-173.9157 534.0187,-174.6251 534.0187,-174.6251"/>
</g>
<!-- !(req_0 == 1&#39;b1) &amp; (req_1 == 1&#39;b1) -->
<g id="node4" class="node">
<title>!(req_0 == 1&#39;b1) &amp; (req_1 == 1&#39;b1)</title>
<ellipse fill="#6495ed" stroke="#6495ed" cx="100.8419" cy="-162" rx="100.6841" ry="18"/>
<text text-anchor="middle" x="100.8419" y="-159" font-family="Helvetica,sans-Serif" font-size="10.00" fill="#ffffff">!(req_0 == 1&#39;b1) &amp; (req_1 == 1&#39;b1)</text>
</g>
<!--  IDLE&#45;&gt;!(req_0 == 1&#39;b1) &amp; (req_1 == 1&#39;b1) -->
<g id="edge3" class="edge">
<title> IDLE&#45;&gt;!(req_0 == 1&#39;b1) &amp; (req_1 == 1&#39;b1)</title>
<path fill="none" stroke="#b03060" d="M335.4387,-226.9652C295.6751,-215.9538 217.5845,-194.3287 162.4459,-179.0596"/>
<polygon fill="#b03060" stroke="#b03060" points="155.5018,-177.1366 163.0887,-175.9691 158.8749,-178.0707 162.248,-179.0048 162.248,-179.0048 162.248,-179.0048 158.8749,-178.0707 161.4072,-182.0406 155.5018,-177.1366 155.5018,-177.1366"/>
</g>
<!-- !(req_1 == 1&#39;b1) &amp; !(req_0 == 1&#39;b1) -->
<g id="node6" class="node">
<title>!(req_1 == 1&#39;b1) &amp; !(req_0 == 1&#39;b1)</title>
<ellipse fill="#6495ed" stroke="#6495ed" cx="360.8419" cy="-162" rx="102.5261" ry="18"/>
<text text-anchor="middle" x="360.8419" y="-159" font-family="Helvetica,sans-Serif" font-size="10.00" fill="#ffffff">!(req_1 == 1&#39;b1) &amp; !(req_0 == 1&#39;b1)</text>
</g>
<!--  IDLE&#45;&gt;!(req_1 == 1&#39;b1) &amp; !(req_0 == 1&#39;b1) -->
<g id="edge5" class="edge">
<title> IDLE&#45;&gt;!(req_1 == 1&#39;b1) &amp; !(req_0 == 1&#39;b1)</title>
<path fill="none" stroke="#b03060" d="M354.9262,-216.2022C354.0476,-207.4416 353.863,-196.7293 354.3722,-187.1482"/>
<polygon fill="#b03060" stroke="#b03060" points="354.8969,-180.0931 357.519,-187.3075 354.6373,-183.5835 354.3777,-187.0738 354.3777,-187.0738 354.3777,-187.0738 354.6373,-183.5835 351.2364,-186.8402 354.8969,-180.0931 354.8969,-180.0931"/>
</g>
<!--  GNT0 -->
<g id="node3" class="node">
<title> GNT0</title>
<ellipse fill="#6495ed" stroke="#6495ed" cx="570.8419" cy="-90" rx="27.1567" ry="18"/>
<text text-anchor="middle" x="570.8419" y="-87" font-family="Helvetica,sans-Serif" font-size="10.00" fill="#ffffff"> GNT0</text>
</g>
<!-- (req_0 == 1&#39;b1)&#45;&gt; GNT0 -->
<g id="edge2" class="edge">
<title>(req_0 == 1&#39;b1)&#45;&gt; GNT0</title>
<path fill="none" stroke="#b03060" d="M559.0105,-144.2022C557.1555,-134.9536 556.8472,-123.5298 558.0857,-113.5582"/>
<polygon fill="#b03060" stroke="#b03060" points="559.2608,-106.6058 561.2,-114.033 558.6775,-110.0569 558.0941,-113.5079 558.0941,-113.5079 558.0941,-113.5079 558.6775,-110.0569 554.9881,-112.9829 559.2608,-106.6058 559.2608,-106.6058"/>
</g>
<!-- (req_0 == 1&#39;b1)&#45;&gt; GNT0 -->
<g id="edge8" class="edge">
<title>(req_0 == 1&#39;b1)&#45;&gt; GNT0</title>
<path fill="none" stroke="#b03060" d="M582.6734,-144.2022C584.5284,-134.9536 584.8367,-123.5298 583.5982,-113.5582"/>
<polygon fill="#b03060" stroke="#b03060" points="582.4231,-106.6058 586.6957,-112.9829 583.0064,-110.0569 583.5898,-113.5079 583.5898,-113.5079 583.5898,-113.5079 583.0064,-110.0569 580.4839,-114.033 582.4231,-106.6058 582.4231,-106.6058"/>
</g>
<!--  GNT0&#45;&gt;(req_0 == 1&#39;b1) -->
<g id="edge7" class="edge">
<title> GNT0&#45;&gt;(req_0 == 1&#39;b1)</title>
<path fill="none" stroke="#b03060" d="M570.8419,-108.4133C570.8419,-116.9938 570.8419,-127.3414 570.8419,-136.6463"/>
<polygon fill="#b03060" stroke="#b03060" points="570.8419,-143.8314 567.692,-136.8313 570.842,-140.3314 570.842,-136.8314 570.842,-136.8314 570.842,-136.8314 570.842,-140.3314 573.992,-136.8314 570.8419,-143.8314 570.8419,-143.8314"/>
</g>
<!-- !(req_0 == 1&#39;b1) -->
<g id="node7" class="node">
<title>!(req_0 == 1&#39;b1)</title>
<ellipse fill="#6495ed" stroke="#6495ed" cx="531.8419" cy="-18" rx="52.2821" ry="18"/>
<text text-anchor="middle" x="531.8419" y="-15" font-family="Helvetica,sans-Serif" font-size="10.00" fill="#ffffff">!(req_0 == 1&#39;b1)</text>
</g>
<!--  GNT0&#45;&gt;!(req_0 == 1&#39;b1) -->
<g id="edge9" class="edge">
<title> GNT0&#45;&gt;!(req_0 == 1&#39;b1)</title>
<path fill="none" stroke="#b03060" d="M561.5995,-72.937C556.6475,-63.7949 550.4617,-52.375 545.0147,-42.3189"/>
<polygon fill="#b03060" stroke="#b03060" points="541.5623,-35.9453 547.6661,-40.6 543.2293,-39.0228 544.8963,-42.1003 544.8963,-42.1003 544.8963,-42.1003 543.2293,-39.0228 542.1265,-43.6006 541.5623,-35.9453 541.5623,-35.9453"/>
</g>
<!--  GNT1 -->
<g id="node5" class="node">
<title> GNT1</title>
<ellipse fill="#6495ed" stroke="#6495ed" cx="102.8419" cy="-90" rx="27.1567" ry="18"/>
<text text-anchor="middle" x="102.8419" y="-87" font-family="Helvetica,sans-Serif" font-size="10.00" fill="#ffffff"> GNT1</text>
</g>
<!-- !(req_0 == 1&#39;b1) &amp; (req_1 == 1&#39;b1)&#45;&gt; GNT1 -->
<g id="edge4" class="edge">
<title>!(req_0 == 1&#39;b1) &amp; (req_1 == 1&#39;b1)&#45;&gt; GNT1</title>
<path fill="none" stroke="#b03060" d="M101.3466,-143.8314C101.584,-135.2848 101.8713,-124.9443 102.1303,-115.6198"/>
<polygon fill="#b03060" stroke="#b03060" points="102.3305,-108.4133 105.2848,-115.4981 102.2332,-111.9119 102.136,-115.4106 102.136,-115.4106 102.136,-115.4106 102.2332,-111.9119 98.9872,-115.3231 102.3305,-108.4133 102.3305,-108.4133"/>
</g>
<!-- (req_1 == 1&#39;b1) -->
<g id="node8" class="node">
<title>(req_1 == 1&#39;b1)</title>
<ellipse fill="#6495ed" stroke="#6495ed" cx="102.8419" cy="-18" rx="50.9406" ry="18"/>
<text text-anchor="middle" x="102.8419" y="-15" font-family="Helvetica,sans-Serif" font-size="10.00" fill="#ffffff">(req_1 == 1&#39;b1)</text>
</g>
<!--  GNT1&#45;&gt;(req_1 == 1&#39;b1) -->
<g id="edge11" class="edge">
<title> GNT1&#45;&gt;(req_1 == 1&#39;b1)</title>
<path fill="none" stroke="#b03060" d="M96.9262,-72.2022C96.0476,-63.4416 95.863,-52.7293 96.3722,-43.1482"/>
<polygon fill="#b03060" stroke="#b03060" points="96.8969,-36.0931 99.519,-43.3075 96.6373,-39.5835 96.3777,-43.0738 96.3777,-43.0738 96.3777,-43.0738 96.6373,-39.5835 93.2364,-42.8402 96.8969,-36.0931 96.8969,-36.0931"/>
</g>
<!-- !(req_1 == 1&#39;b1) -->
<g id="node9" class="node">
<title>!(req_1 == 1&#39;b1)</title>
<ellipse fill="#6495ed" stroke="#6495ed" cx="225.8419" cy="-18" rx="52.2821" ry="18"/>
<text text-anchor="middle" x="225.8419" y="-15" font-family="Helvetica,sans-Serif" font-size="10.00" fill="#ffffff">!(req_1 == 1&#39;b1)</text>
</g>
<!--  GNT1&#45;&gt;!(req_1 == 1&#39;b1) -->
<g id="edge13" class="edge">
<title> GNT1&#45;&gt;!(req_1 == 1&#39;b1)</title>
<path fill="none" stroke="#b03060" d="M123.4294,-77.9488C142.4329,-66.8248 170.9747,-50.1174 193.104,-37.1637"/>
<polygon fill="#b03060" stroke="#b03060" points="199.1622,-33.6174 194.7125,-39.8722 196.1417,-35.3855 193.1211,-37.1537 193.1211,-37.1537 193.1211,-37.1537 196.1417,-35.3855 191.5298,-34.4352 199.1622,-33.6174 199.1622,-33.6174"/>
</g>
<!-- !(req_1 == 1&#39;b1) &amp; !(req_0 == 1&#39;b1)&#45;&gt; IDLE -->
<g id="edge6" class="edge">
<title>!(req_1 == 1&#39;b1) &amp; !(req_0 == 1&#39;b1)&#45;&gt; IDLE</title>
<path fill="none" stroke="#b03060" d="M366.787,-180.0931C367.65,-188.8972 367.8191,-199.6182 367.2943,-209.1736"/>
<polygon fill="#b03060" stroke="#b03060" points="366.7577,-216.2022 364.1497,-208.9827 367.0241,-212.7124 367.2906,-209.2226 367.2906,-209.2226 367.2906,-209.2226 367.0241,-212.7124 370.4315,-209.4624 366.7577,-216.2022 366.7577,-216.2022"/>
</g>
<!-- !(req_0 == 1&#39;b1)&#45;&gt; IDLE -->
<g id="edge10" class="edge">
<title>!(req_0 == 1&#39;b1)&#45;&gt; IDLE</title>
<path fill="none" stroke="#b03060" d="M529.7441,-36.0843C525.0884,-68.6555 511.0963,-137.7156 472.8419,-180 451.6619,-203.4113 418.1282,-217.6974 393.2683,-225.6438"/>
<polygon fill="#b03060" stroke="#b03060" points="386.5041,-227.7193 392.2721,-222.6544 389.8501,-226.6926 393.1961,-225.6659 393.1961,-225.6659 393.1961,-225.6659 389.8501,-226.6926 394.1202,-228.6773 386.5041,-227.7193 386.5041,-227.7193"/>
</g>
<!-- (req_1 == 1&#39;b1)&#45;&gt; GNT1 -->
<g id="edge12" class="edge">
<title>(req_1 == 1&#39;b1)&#45;&gt; GNT1</title>
<path fill="none" stroke="#b03060" d="M108.787,-36.0931C109.65,-44.8972 109.8191,-55.6182 109.2943,-65.1736"/>
<polygon fill="#b03060" stroke="#b03060" points="108.7577,-72.2022 106.1497,-64.9827 109.0241,-68.7124 109.2906,-65.2226 109.2906,-65.2226 109.2906,-65.2226 109.0241,-68.7124 112.4315,-65.4624 108.7577,-72.2022 108.7577,-72.2022"/>
</g>
<!-- !(req_1 == 1&#39;b1)&#45;&gt; IDLE -->
<g id="edge14" class="edge">
<title>!(req_1 == 1&#39;b1)&#45;&gt; IDLE</title>
<path fill="none" stroke="#b03060" d="M223.2882,-36.0628C219.7478,-68.2972 216.9878,-136.4289 248.8419,-180 267.5906,-205.645 301.7955,-219.6505 327.4905,-226.9239"/>
<polygon fill="#b03060" stroke="#b03060" points="334.4923,-228.8009 326.9153,-230.0309 331.1116,-227.8946 327.731,-226.9883 327.731,-226.9883 327.731,-226.9883 331.1116,-227.8946 328.5467,-223.9457 334.4923,-228.8009 334.4923,-228.8009"/>
</g>
</g>
</svg>
