<?xml version="1.0" encoding="UTF-8" standalone="no"?>
<!DOCTYPE svg PUBLIC "-//W3C//DTD SVG 1.1//EN"
 "http://www.w3.org/Graphics/SVG/1.1/DTD/svg11.dtd">
<!-- Generated by graphviz version 2.40.1 (20161225.0304)
 -->
<!-- Title: G Pages: 1 -->
<svg width="1307pt" height="188pt"
 viewBox="0.00 0.00 1307.22 188.00" xmlns="http://www.w3.org/2000/svg" xmlns:xlink="http://www.w3.org/1999/xlink">
<g id="graph0" class="graph" transform="scale(1 1) rotate(0) translate(4 184)">
<title>G</title>
<polygon fill="#ffffff" stroke="transparent" points="-4,4 -4,-184 1303.2227,-184 1303.2227,4 -4,4"/>
<!--  RESPONSE_ADDRESS -->
<g id="node1" class="node">
<title> RESPONSE_ADDRESS</title>
<ellipse fill="#6495ed" stroke="#6495ed" cx="327.4509" cy="-162" rx="77.2229" ry="18"/>
<text text-anchor="middle" x="327.4509" y="-159" font-family="Helvetica,sans-Serif" font-size="10.00" fill="#ffffff"> RESPONSE_ADDRESS</text>
</g>
<!-- (count_send_data != DATA_CONFIG_REG[13:2]) -->
<g id="node2" class="node">
<title>(count_send_data != DATA_CONFIG_REG[13:2])</title>
<ellipse fill="#6495ed" stroke="#6495ed" cx="142.4509" cy="-90" rx="142.4018" ry="18"/>
<text text-anchor="middle" x="142.4509" y="-87" font-family="Helvetica,sans-Serif" font-size="10.00" fill="#ffffff">(count_send_data != DATA_CONFIG_REG[13:2])</text>
</g>
<!--  RESPONSE_ADDRESS&#45;&gt;(count_send_data != DATA_CONFIG_REG[13:2]) -->
<g id="edge1" class="edge">
<title> RESPONSE_ADDRESS&#45;&gt;(count_send_data != DATA_CONFIG_REG[13:2])</title>
<path fill="none" stroke="#b03060" d="M283.5261,-147.0816C254.7576,-136.4044 217.327,-121.9071 188.2052,-110.1947"/>
<polygon fill="#b03060" stroke="#b03060" points="181.3702,-107.4349 189.0404,-107.1349 184.6156,-108.7454 187.861,-110.0558 187.861,-110.0558 187.861,-110.0558 184.6156,-108.7454 186.6816,-112.9767 181.3702,-107.4349 181.3702,-107.4349"/>
</g>
<!-- !(count_send_data != DATA_CONFIG_REG[13:2]) &amp; (RESPONSE == 1&#39;b0) -->
<g id="node3" class="node">
<title>!(count_send_data != DATA_CONFIG_REG[13:2]) &amp; (RESPONSE == 1&#39;b0)</title>
<ellipse fill="#6495ed" stroke="#6495ed" cx="513.4509" cy="-90" rx="210.7228" ry="18"/>
<text text-anchor="middle" x="513.4509" y="-87" font-family="Helvetica,sans-Serif" font-size="10.00" fill="#ffffff">!(count_send_data != DATA_CONFIG_REG[13:2]) &amp; (RESPONSE == 1&#39;b0)</text>
</g>
<!--  RESPONSE_ADDRESS&#45;&gt;!(count_send_data != DATA_CONFIG_REG[13:2]) &amp; (RESPONSE == 1&#39;b0) -->
<g id="edge3" class="edge">
<title> RESPONSE_ADDRESS&#45;&gt;!(count_send_data != DATA_CONFIG_REG[13:2]) &amp; (RESPONSE == 1&#39;b0)</title>
<path fill="none" stroke="#b03060" d="M367.3526,-146.5542C394.7424,-135.9517 431.3731,-121.7721 461.1031,-110.2637"/>
<polygon fill="#b03060" stroke="#b03060" points="467.7231,-107.7011 462.3323,-113.1657 464.4592,-108.9646 461.1952,-110.2281 461.1952,-110.2281 461.1952,-110.2281 464.4592,-108.9646 460.058,-107.2905 467.7231,-107.7011 467.7231,-107.7011"/>
</g>
<!-- !(RESPONSE == 1&#39;b0) &amp; !(count_send_data != DATA_CONFIG_REG[13:2]) &amp; (RESPONSE == 1&#39;b1) -->
<g id="node5" class="node">
<title>!(RESPONSE == 1&#39;b0) &amp; !(count_send_data != DATA_CONFIG_REG[13:2]) &amp; (RESPONSE == 1&#39;b1)</title>
<ellipse fill="#6495ed" stroke="#6495ed" cx="1020.4509" cy="-90" rx="278.5438" ry="18"/>
<text text-anchor="middle" x="1020.4509" y="-87" font-family="Helvetica,sans-Serif" font-size="10.00" fill="#ffffff">!(RESPONSE == 1&#39;b0) &amp; !(count_send_data != DATA_CONFIG_REG[13:2]) &amp; (RESPONSE == 1&#39;b1)</text>
</g>
<!--  RESPONSE_ADDRESS&#45;&gt;!(RESPONSE == 1&#39;b0) &amp; !(count_send_data != DATA_CONFIG_REG[13:2]) &amp; (RESPONSE == 1&#39;b1) -->
<g id="edge5" class="edge">
<title> RESPONSE_ADDRESS&#45;&gt;!(RESPONSE == 1&#39;b0) &amp; !(count_send_data != DATA_CONFIG_REG[13:2]) &amp; (RESPONSE == 1&#39;b1)</title>
<path fill="none" stroke="#b03060" d="M398.0349,-154.6666C507.2182,-143.3229 719.6881,-121.2481 865.7595,-106.0718"/>
<polygon fill="#b03060" stroke="#b03060" points="873.0998,-105.3092 866.4629,-109.1658 869.6186,-105.6709 866.1373,-106.0327 866.1373,-106.0327 866.1373,-106.0327 869.6186,-105.6709 865.8117,-102.8995 873.0998,-105.3092 873.0998,-105.3092"/>
</g>
<!-- (count_send_data != DATA_CONFIG_REG[13:2])&#45;&gt; RESPONSE_ADDRESS -->
<g id="edge2" class="edge">
<title>(count_send_data != DATA_CONFIG_REG[13:2])&#45;&gt; RESPONSE_ADDRESS</title>
<path fill="none" stroke="#b03060" d="M191.915,-106.9814C221.0276,-117.8597 257.3897,-131.988 285.1669,-143.2037"/>
<polygon fill="#b03060" stroke="#b03060" points="291.6738,-145.8418 284.0031,-146.1309 288.4303,-144.5267 285.1867,-143.2116 285.1867,-143.2116 285.1867,-143.2116 288.4303,-144.5267 286.3703,-140.2924 291.6738,-145.8418 291.6738,-145.8418"/>
</g>
<!--  DELAY_BYTES -->
<g id="node4" class="node">
<title> DELAY_BYTES</title>
<ellipse fill="#6495ed" stroke="#6495ed" cx="513.4509" cy="-18" rx="54.1302" ry="18"/>
<text text-anchor="middle" x="513.4509" y="-15" font-family="Helvetica,sans-Serif" font-size="10.00" fill="#ffffff"> DELAY_BYTES</text>
</g>
<!-- !(count_send_data != DATA_CONFIG_REG[13:2]) &amp; (RESPONSE == 1&#39;b0)&#45;&gt; DELAY_BYTES -->
<g id="edge4" class="edge">
<title>!(count_send_data != DATA_CONFIG_REG[13:2]) &amp; (RESPONSE == 1&#39;b0)&#45;&gt; DELAY_BYTES</title>
<path fill="none" stroke="#b03060" d="M513.4509,-71.8314C513.4509,-63.2848 513.4509,-52.9443 513.4509,-43.6198"/>
<polygon fill="#b03060" stroke="#b03060" points="513.4509,-36.4133 516.601,-43.4132 513.451,-39.9133 513.451,-43.4133 513.451,-43.4133 513.451,-43.4133 513.451,-39.9133 510.301,-43.4133 513.4509,-36.4133 513.4509,-36.4133"/>
</g>
<!--  NACK -->
<g id="node6" class="node">
<title> NACK</title>
<ellipse fill="#6495ed" stroke="#6495ed" cx="1020.4509" cy="-18" rx="27.9906" ry="18"/>
<text text-anchor="middle" x="1020.4509" y="-15" font-family="Helvetica,sans-Serif" font-size="10.00" fill="#ffffff"> NACK</text>
</g>
<!-- !(RESPONSE == 1&#39;b0) &amp; !(count_send_data != DATA_CONFIG_REG[13:2]) &amp; (RESPONSE == 1&#39;b1)&#45;&gt; NACK -->
<g id="edge6" class="edge">
<title>!(RESPONSE == 1&#39;b0) &amp; !(count_send_data != DATA_CONFIG_REG[13:2]) &amp; (RESPONSE == 1&#39;b1)&#45;&gt; NACK</title>
<path fill="none" stroke="#b03060" d="M1020.4509,-71.8314C1020.4509,-63.2848 1020.4509,-52.9443 1020.4509,-43.6198"/>
<polygon fill="#b03060" stroke="#b03060" points="1020.4509,-36.4133 1023.601,-43.4132 1020.451,-39.9133 1020.451,-43.4133 1020.451,-43.4133 1020.451,-43.4133 1020.451,-39.9133 1017.301,-43.4133 1020.4509,-36.4133 1020.4509,-36.4133"/>
</g>
</g>
</svg>
