<?xml version="1.0" encoding="UTF-8" standalone="no"?>
<!DOCTYPE svg PUBLIC "-//W3C//DTD SVG 1.1//EN"
 "http://www.w3.org/Graphics/SVG/1.1/DTD/svg11.dtd">
<!-- Generated by graphviz version 2.40.1 (20161225.0304)
 -->
<!-- Title: G Pages: 1 -->
<svg width="600pt" height="188pt"
 viewBox="0.00 0.00 599.57 188.00" xmlns="http://www.w3.org/2000/svg" xmlns:xlink="http://www.w3.org/1999/xlink">
<g id="graph0" class="graph" transform="scale(1 1) rotate(0) translate(4 184)">
<title>G</title>
<polygon fill="#ffffff" stroke="transparent" points="-4,4 -4,-184 595.5729,-184 595.5729,4 -4,4"/>
<!--  START -->
<g id="node1" class="node">
<title> START</title>
<ellipse fill="#6495ed" stroke="#6495ed" cx="142.4509" cy="-162" rx="31.0027" ry="18"/>
<text text-anchor="middle" x="142.4509" y="-159" font-family="Helvetica,sans-Serif" font-size="10.00" fill="#ffffff"> START</text>
</g>
<!-- (count_send_data != DATA_CONFIG_REG[13:2]) -->
<g id="node2" class="node">
<title>(count_send_data != DATA_CONFIG_REG[13:2])</title>
<ellipse fill="#6495ed" stroke="#6495ed" cx="142.4509" cy="-90" rx="142.4018" ry="18"/>
<text text-anchor="middle" x="142.4509" y="-87" font-family="Helvetica,sans-Serif" font-size="10.00" fill="#ffffff">(count_send_data != DATA_CONFIG_REG[13:2])</text>
</g>
<!--  START&#45;&gt;(count_send_data != DATA_CONFIG_REG[13:2]) -->
<g id="edge1" class="edge">
<title> START&#45;&gt;(count_send_data != DATA_CONFIG_REG[13:2])</title>
<path fill="none" stroke="#b03060" d="M136.5352,-144.2022C135.6566,-135.4416 135.472,-124.7293 135.9812,-115.1482"/>
<polygon fill="#b03060" stroke="#b03060" points="136.5059,-108.0931 139.128,-115.3075 136.2463,-111.5835 135.9867,-115.0738 135.9867,-115.0738 135.9867,-115.0738 136.2463,-111.5835 132.8453,-114.8402 136.5059,-108.0931 136.5059,-108.0931"/>
</g>
<!-- !(count_send_data != DATA_CONFIG_REG[13:2]) -->
<g id="node3" class="node">
<title>!(count_send_data != DATA_CONFIG_REG[13:2])</title>
<ellipse fill="#6495ed" stroke="#6495ed" cx="447.4509" cy="-90" rx="144.2442" ry="18"/>
<text text-anchor="middle" x="447.4509" y="-87" font-family="Helvetica,sans-Serif" font-size="10.00" fill="#ffffff">!(count_send_data != DATA_CONFIG_REG[13:2])</text>
</g>
<!--  START&#45;&gt;!(count_send_data != DATA_CONFIG_REG[13:2]) -->
<g id="edge3" class="edge">
<title> START&#45;&gt;!(count_send_data != DATA_CONFIG_REG[13:2])</title>
<path fill="none" stroke="#b03060" d="M171.4195,-155.1615C217.2582,-144.3406 307.9624,-122.9284 372.8897,-107.6013"/>
<polygon fill="#b03060" stroke="#b03060" points="379.8809,-105.9509 373.7919,-110.625 376.4745,-106.7551 373.0682,-107.5593 373.0682,-107.5593 373.0682,-107.5593 376.4745,-106.7551 372.3444,-104.4935 379.8809,-105.9509 379.8809,-105.9509"/>
</g>
<!-- (count_send_data != DATA_CONFIG_REG[13:2])&#45;&gt; START -->
<g id="edge2" class="edge">
<title>(count_send_data != DATA_CONFIG_REG[13:2])&#45;&gt; START</title>
<path fill="none" stroke="#b03060" d="M148.3959,-108.0931C149.2589,-116.8972 149.428,-127.6182 148.9032,-137.1736"/>
<polygon fill="#b03060" stroke="#b03060" points="148.3666,-144.2022 145.7587,-136.9827 148.6331,-140.7124 148.8996,-137.2226 148.8996,-137.2226 148.8996,-137.2226 148.6331,-140.7124 152.0404,-137.4624 148.3666,-144.2022 148.3666,-144.2022"/>
</g>
<!--  CONTROLIN_1 -->
<g id="node4" class="node">
<title> CONTROLIN_1</title>
<ellipse fill="#6495ed" stroke="#6495ed" cx="447.4509" cy="-18" rx="53.2714" ry="18"/>
<text text-anchor="middle" x="447.4509" y="-15" font-family="Helvetica,sans-Serif" font-size="10.00" fill="#ffffff"> CONTROLIN_1</text>
</g>
<!-- !(count_send_data != DATA_CONFIG_REG[13:2])&#45;&gt; CONTROLIN_1 -->
<g id="edge4" class="edge">
<title>!(count_send_data != DATA_CONFIG_REG[13:2])&#45;&gt; CONTROLIN_1</title>
<path fill="none" stroke="#b03060" d="M447.4509,-71.8314C447.4509,-63.2848 447.4509,-52.9443 447.4509,-43.6198"/>
<polygon fill="#b03060" stroke="#b03060" points="447.4509,-36.4133 450.601,-43.4132 447.451,-39.9133 447.451,-43.4133 447.451,-43.4133 447.451,-43.4133 447.451,-39.9133 444.301,-43.4133 447.4509,-36.4133 447.4509,-36.4133"/>
</g>
</g>
</svg>
